<?plantuml 1.2026.1beta5?><svg xmlns="http://www.w3.org/2000/svg" xmlns:xlink="http://www.w3.org/1999/xlink" contentStyleType="text/css" data-diagram-type="ACTIVITY" height="2166px" preserveAspectRatio="none" style="width:627px;height:2166px;background:#FFFFFF;" version="1.1" viewBox="0 0 627 2166" width="627px" zoomAndPan="magnify"><title>Quality Gates - CI/CD Pipeline</title><defs/><g><g class="title" data-source-line="3"><text fill="#000000" font-family="Verdana" font-size="22" font-weight="bold" lengthAdjust="spacing" textLength="367.125" x="128.676" y="35.4209">Quality Gates - CI/CD Pipeline</text></g><rect fill="#FFFFFF" height="20.9531" style="stroke:#FFFFFF;stroke-width:1;" width="604.4771" x="10" y="54.3545"/><ellipse cx="72.7607" cy="90.3076" fill="#FFFFFF" rx="10" ry="10" style="stroke:#000000;stroke-width:1;"/><rect fill="#FFFFFF" height="33.9688" rx="12.5" ry="12.5" style="stroke:#000000;stroke-width:1;" width="113.5215" x="16" y="120.3076"/><text fill="#000000" font-family="Verdana" font-size="12" lengthAdjust="spacing" textLength="93.5215" x="26" y="141.4463">Commit + Push</text><line style="stroke:#000000;stroke-width:1;" x1="10" x2="10" y1="54.3545" y2="1997.5029"/><rect fill="#FFFFFF" height="104.2344" style="stroke:#000000;stroke-width:1;" width="227.4639" x="178.3496" y="164.2764"/><text fill="#000000" font-family="Verdana" font-size="14" lengthAdjust="spacing" textLength="6.4395" x="188.3496" y="179.2715">"</text><text fill="#000000" font-family="Verdana" font-size="14" font-weight="bold" lengthAdjust="spacing" textLength="96.9063" x="194.7891" y="179.2715">GATE 1: Lint</text><text fill="#000000" font-family="Verdana" font-size="14" lengthAdjust="spacing" textLength="104.1182" x="291.6953" y="179.2715">" &#171;gate&#187; as G1</text><rect fill="#FFFFFF" height="47.9375" rx="12.5" ry="12.5" style="stroke:#000000;stroke-width:1;" width="130.0273" x="227.0679" y="200.5732"/><text fill="#000000" font-family="Verdana" font-size="12" lengthAdjust="spacing" textLength="75.7617" x="237.0679" y="221.7119">ruff (Python)</text><text fill="#000000" font-family="Verdana" font-size="12" lengthAdjust="spacing" textLength="110.0273" x="237.0679" y="235.6807">eslint (TypeScript)</text><rect fill="#FFFFFF" height="33.9688" rx="12.5" ry="12.5" style="stroke:#000000;stroke-width:1;" width="97.0684" x="243.5474" y="336.9131"/><text fill="#000000" font-family="Verdana" font-size="12" lengthAdjust="spacing" textLength="77.0684" x="253.5474" y="358.0518">BLOQUEADO</text><ellipse cx="292.0815" cy="410.3975" fill="none" rx="11" ry="11" style="stroke:#000000;stroke-width:1;"/><ellipse cx="292.0815" cy="410.3975" fill="#FFFFFF" rx="6" ry="6" style="stroke:#000000;stroke-width:1;"/><polygon fill="#FFFFFF" points="267.5168,288.5107,316.6462,288.5107,328.6462,300.5107,316.6462,312.5107,267.5168,312.5107,255.5168,300.5107,267.5168,288.5107" style="stroke:#000000;stroke-width:1;"/><text fill="#000000" font-family="Verdana" font-size="11" lengthAdjust="spacing" textLength="21.6992" x="296.0815" y="322.7212">Nao</text><text fill="#000000" font-family="Verdana" font-size="11" lengthAdjust="spacing" textLength="49.1294" x="267.5168" y="304.3188">0 errors?</text><text fill="#000000" font-family="Verdana" font-size="11" lengthAdjust="spacing" textLength="20.7539" x="328.6462" y="297.9165">Sim</text><rect fill="#FFFFFF" height="104.2344" style="stroke:#000000;stroke-width:1;" width="287.4971" x="148.333" y="453.3975"/><text fill="#000000" font-family="Verdana" font-size="14" lengthAdjust="spacing" textLength="6.4395" x="158.333" y="468.3926">"</text><text fill="#000000" font-family="Verdana" font-size="14" font-weight="bold" lengthAdjust="spacing" textLength="156.9395" x="164.7725" y="468.3926">GATE 2: Type Check</text><text fill="#000000" font-family="Verdana" font-size="14" lengthAdjust="spacing" textLength="104.1182" x="321.7119" y="468.3926">" &#171;gate&#187; as G2</text><rect fill="#FFFFFF" height="47.9375" rx="12.5" ry="12.5" style="stroke:#000000;stroke-width:1;" width="114.9688" x="234.5972" y="489.6943"/><text fill="#000000" font-family="Verdana" font-size="12" lengthAdjust="spacing" textLength="88.2832" x="244.5972" y="510.833">mypy (Python)</text><text fill="#000000" font-family="Verdana" font-size="12" lengthAdjust="spacing" textLength="94.9688" x="244.5972" y="524.8018">tsc (TypeScript)</text><rect fill="#FFFFFF" height="33.9688" rx="12.5" ry="12.5" style="stroke:#000000;stroke-width:1;" width="97.0684" x="243.5474" y="626.0342"/><text fill="#000000" font-family="Verdana" font-size="12" lengthAdjust="spacing" textLength="77.0684" x="253.5474" y="647.1729">BLOQUEADO</text><ellipse cx="292.0815" cy="699.5186" fill="none" rx="11" ry="11" style="stroke:#000000;stroke-width:1;"/><ellipse cx="292.0815" cy="699.5186" fill="#FFFFFF" rx="6" ry="6" style="stroke:#000000;stroke-width:1;"/><polygon fill="#FFFFFF" points="267.5168,577.6318,316.6462,577.6318,328.6462,589.6318,316.6462,601.6318,267.5168,601.6318,255.5168,589.6318,267.5168,577.6318" style="stroke:#000000;stroke-width:1;"/><text fill="#000000" font-family="Verdana" font-size="11" lengthAdjust="spacing" textLength="21.6992" x="296.0815" y="611.8423">Nao</text><text fill="#000000" font-family="Verdana" font-size="11" lengthAdjust="spacing" textLength="49.1294" x="267.5168" y="593.4399">0 errors?</text><text fill="#000000" font-family="Verdana" font-size="11" lengthAdjust="spacing" textLength="20.7539" x="328.6462" y="587.0376">Sim</text><rect fill="#FFFFFF" height="90.2656" style="stroke:#000000;stroke-width:1;" width="277.1885" x="153.4873" y="742.5186"/><text fill="#000000" font-family="Verdana" font-size="14" lengthAdjust="spacing" textLength="6.4395" x="163.4873" y="757.5137">"</text><text fill="#000000" font-family="Verdana" font-size="14" font-weight="bold" lengthAdjust="spacing" textLength="146.6309" x="169.9268" y="757.5137">GATE 3: Unit Tests</text><text fill="#000000" font-family="Verdana" font-size="14" lengthAdjust="spacing" textLength="104.1182" x="316.5576" y="757.5137">" &#171;gate&#187; as G3</text><rect fill="#FFFFFF" height="33.9688" rx="12.5" ry="12.5" style="stroke:#000000;stroke-width:1;" width="108.9277" x="237.6177" y="778.8154"/><text fill="#000000" font-family="Verdana" font-size="12" lengthAdjust="spacing" textLength="88.9277" x="247.6177" y="799.9541">pytest + vitest</text><rect fill="#FFFFFF" height="33.9688" rx="12.5" ry="12.5" style="stroke:#000000;stroke-width:1;" width="97.0684" x="243.5474" y="901.1865"/><text fill="#000000" font-family="Verdana" font-size="12" lengthAdjust="spacing" textLength="77.0684" x="253.5474" y="922.3252">BLOQUEADO</text><ellipse cx="292.0815" cy="974.6709" fill="none" rx="11" ry="11" style="stroke:#000000;stroke-width:1;"/><ellipse cx="292.0815" cy="974.6709" fill="#FFFFFF" rx="6" ry="6" style="stroke:#000000;stroke-width:1;"/><polygon fill="#FFFFFF" points="259.0977,852.7842,325.0654,852.7842,337.0654,864.7842,325.0654,876.7842,259.0977,876.7842,247.0977,864.7842,259.0977,852.7842" style="stroke:#000000;stroke-width:1;"/><text fill="#000000" font-family="Verdana" font-size="11" lengthAdjust="spacing" textLength="21.6992" x="296.0815" y="886.9946">Nao</text><text fill="#000000" font-family="Verdana" font-size="11" lengthAdjust="spacing" textLength="65.9678" x="259.0977" y="868.5923">100% pass?</text><text fill="#000000" font-family="Verdana" font-size="11" lengthAdjust="spacing" textLength="20.7539" x="337.0654" y="862.1899">Sim</text><rect fill="#FFFFFF" height="90.2656" style="stroke:#000000;stroke-width:1;" width="271.4668" x="156.3481" y="1017.6709"/><text fill="#000000" font-family="Verdana" font-size="14" lengthAdjust="spacing" textLength="6.4395" x="166.3481" y="1032.666">"</text><text fill="#000000" font-family="Verdana" font-size="14" font-weight="bold" lengthAdjust="spacing" textLength="140.9092" x="172.7876" y="1032.666">GATE 4: Coverage</text><text fill="#000000" font-family="Verdana" font-size="14" lengthAdjust="spacing" textLength="104.1182" x="313.6968" y="1032.666">" &#171;gate&#187; as G4</text><rect fill="#FFFFFF" height="33.9688" rx="12.5" ry="12.5" style="stroke:#000000;stroke-width:1;" width="116.4395" x="233.8618" y="1053.9678"/><text fill="#000000" font-family="Verdana" font-size="12" lengthAdjust="spacing" textLength="96.4395" x="243.8618" y="1075.1064">coverage report</text><rect fill="#FFFFFF" height="33.9688" rx="12.5" ry="12.5" style="stroke:#000000;stroke-width:1;" width="97.0684" x="243.5474" y="1176.3389"/><text fill="#000000" font-family="Verdana" font-size="12" lengthAdjust="spacing" textLength="77.0684" x="253.5474" y="1197.4775">BLOQUEADO</text><ellipse cx="292.0815" cy="1249.8232" fill="none" rx="11" ry="11" style="stroke:#000000;stroke-width:1;"/><ellipse cx="292.0815" cy="1249.8232" fill="#FFFFFF" rx="6" ry="6" style="stroke:#000000;stroke-width:1;"/><polygon fill="#FFFFFF" points="270.5811,1127.9365,313.582,1127.9365,325.582,1139.9365,313.582,1151.9365,270.5811,1151.9365,258.5811,1139.9365,270.5811,1127.9365" style="stroke:#000000;stroke-width:1;"/><text fill="#000000" font-family="Verdana" font-size="11" lengthAdjust="spacing" textLength="21.6992" x="296.0815" y="1162.147">Nao</text><text fill="#000000" font-family="Verdana" font-size="11" lengthAdjust="spacing" textLength="43.001" x="270.5811" y="1143.7446">&gt; 80%?</text><text fill="#000000" font-family="Verdana" font-size="11" lengthAdjust="spacing" textLength="20.7539" x="325.582" y="1137.3423">Sim</text><rect fill="#FFFFFF" height="104.2344" style="stroke:#000000;stroke-width:1;" width="305.1201" x="139.5215" y="1292.8232"/><text fill="#000000" font-family="Verdana" font-size="14" lengthAdjust="spacing" textLength="6.4395" x="149.5215" y="1307.8184">"</text><text fill="#000000" font-family="Verdana" font-size="14" font-weight="bold" lengthAdjust="spacing" textLength="174.5625" x="155.9609" y="1307.8184">GATE 5: Security Scan</text><text fill="#000000" font-family="Verdana" font-size="14" lengthAdjust="spacing" textLength="104.1182" x="330.5234" y="1307.8184">" &#171;gate&#187; as G5</text><rect fill="#FFFFFF" height="47.9375" rx="12.5" ry="12.5" style="stroke:#000000;stroke-width:1;" width="153.8281" x="215.1675" y="1329.1201"/><text fill="#000000" font-family="Verdana" font-size="12" lengthAdjust="spacing" textLength="70.7461" x="225.1675" y="1350.2588">Trivy / Snyk</text><text fill="#000000" font-family="Verdana" font-size="12" lengthAdjust="spacing" textLength="133.8281" x="225.1675" y="1364.2275">SAST + Dependencias</text><rect fill="#FFFFFF" height="33.9688" rx="12.5" ry="12.5" style="stroke:#000000;stroke-width:1;" width="97.0684" x="243.5474" y="1465.46"/><text fill="#000000" font-family="Verdana" font-size="12" lengthAdjust="spacing" textLength="77.0684" x="253.5474" y="1486.5986">BLOQUEADO</text><ellipse cx="292.0815" cy="1538.9443" fill="none" rx="11" ry="11" style="stroke:#000000;stroke-width:1;"/><ellipse cx="292.0815" cy="1538.9443" fill="#FFFFFF" rx="6" ry="6" style="stroke:#000000;stroke-width:1;"/><polygon fill="#FFFFFF" points="251.6506,1417.0576,332.5125,1417.0576,344.5125,1429.0576,332.5125,1441.0576,251.6506,1441.0576,239.6506,1429.0576,251.6506,1417.0576" style="stroke:#000000;stroke-width:1;"/><text fill="#000000" font-family="Verdana" font-size="11" lengthAdjust="spacing" textLength="21.6992" x="296.0815" y="1451.2681">Nao</text><text fill="#000000" font-family="Verdana" font-size="11" lengthAdjust="spacing" textLength="80.8618" x="251.6506" y="1432.8657">0 critical/high?</text><text fill="#000000" font-family="Verdana" font-size="11" lengthAdjust="spacing" textLength="20.7539" x="344.5125" y="1426.4634">Sim</text><rect fill="#FFFFFF" height="90.2656" style="stroke:#000000;stroke-width:1;" width="273.2305" x="155.4663" y="1581.9443"/><text fill="#000000" font-family="Verdana" font-size="14" lengthAdjust="spacing" textLength="6.4395" x="165.4663" y="1596.9395">"</text><text fill="#000000" font-family="Verdana" font-size="14" font-weight="bold" lengthAdjust="spacing" textLength="142.6729" x="171.9058" y="1596.9395">GATE 6: E2E Tests</text><text fill="#000000" font-family="Verdana" font-size="14" lengthAdjust="spacing" textLength="104.1182" x="314.5786" y="1596.9395">" &#171;gate&#187; as G6</text><rect fill="#FFFFFF" height="33.9688" rx="12.5" ry="12.5" style="stroke:#000000;stroke-width:1;" width="83.0352" x="250.564" y="1618.2412"/><text fill="#000000" font-family="Verdana" font-size="12" lengthAdjust="spacing" textLength="63.0352" x="260.564" y="1639.3799">Playwright</text><rect fill="#FFFFFF" height="33.9688" rx="12.5" ry="12.5" style="stroke:#000000;stroke-width:1;" width="97.0684" x="243.5474" y="1740.6123"/><text fill="#000000" font-family="Verdana" font-size="12" lengthAdjust="spacing" textLength="77.0684" x="253.5474" y="1761.751">BLOQUEADO</text><ellipse cx="292.0815" cy="1814.5654" fill="none" rx="11" ry="11" style="stroke:#000000;stroke-width:1;"/><ellipse cx="292.0815" cy="1814.5654" fill="#FFFFFF" rx="6" ry="6" style="stroke:#000000;stroke-width:1;"/><polygon fill="#FFFFFF" points="259.0977,1692.21,325.0654,1692.21,337.0654,1704.21,325.0654,1716.21,259.0977,1716.21,247.0977,1704.21,259.0977,1692.21" style="stroke:#000000;stroke-width:1;"/><text fill="#000000" font-family="Verdana" font-size="11" lengthAdjust="spacing" textLength="21.6992" x="296.0815" y="1726.4204">Nao</text><text fill="#000000" font-family="Verdana" font-size="11" lengthAdjust="spacing" textLength="65.9678" x="259.0977" y="1708.0181">100% pass?</text><text fill="#000000" font-family="Verdana" font-size="11" lengthAdjust="spacing" textLength="20.7539" x="337.0654" y="1701.6157">Sim</text><line style="stroke:#000000;stroke-width:1;" x1="133.5215" x2="133.5215" y1="54.3545" y2="1997.5029"/><rect fill="#FFFFFF" height="33.9688" rx="12.5" ry="12.5" style="stroke:#000000;stroke-width:1;" width="153.9746" x="454.6416" y="1867.5654"/><text fill="#000000" font-family="Verdana" font-size="12" lengthAdjust="spacing" textLength="133.9746" x="464.6416" y="1888.7041">Deploy para ambiente</text><rect fill="#FFFFFF" height="33.9688" rx="12.5" ry="12.5" style="stroke:#000000;stroke-width:1;" width="88.332" x="487.4629" y="1921.5342"/><text fill="#000000" font-family="Verdana" font-size="12" lengthAdjust="spacing" textLength="68.332" x="497.4629" y="1942.6729">APROVADO</text><ellipse cx="531.6289" cy="1986.5029" fill="none" rx="11" ry="11" style="stroke:#000000;stroke-width:1;"/><ellipse cx="531.6289" cy="1986.5029" fill="#FFFFFF" rx="6" ry="6" style="stroke:#000000;stroke-width:1;"/><line style="stroke:#000000;stroke-width:1;" x1="448.6416" x2="448.6416" y1="54.3545" y2="1997.5029"/><line style="stroke:#000000;stroke-width:1;" x1="612.6162" x2="612.6162" y1="54.3545" y2="1997.5029"/><line style="stroke:#000000;stroke-width:1;" x1="72.7607" x2="72.7607" y1="100.3076" y2="120.3076"/><polygon fill="#000000" points="68.7607,110.3076,72.7607,120.3076,76.7607,110.3076,72.7607,114.3076" style="stroke:#000000;stroke-width:1;"/><line style="stroke:#000000;stroke-width:1;" x1="292.0815" x2="292.0815" y1="370.8818" y2="399.3975"/><polygon fill="#000000" points="288.0815,389.3975,292.0815,399.3975,296.0815,389.3975,292.0815,393.3975" style="stroke:#000000;stroke-width:1;"/><line style="stroke:#000000;stroke-width:1;" x1="292.0815" x2="292.0815" y1="312.5107" y2="336.9131"/><polygon fill="#000000" points="288.0815,326.9131,292.0815,336.9131,296.0815,326.9131,292.0815,330.9131" style="stroke:#000000;stroke-width:1;"/><line style="stroke:#000000;stroke-width:1;" x1="328.6462" x2="350.6157" y1="300.5107" y2="300.5107"/><polygon fill="#000000" points="346.6157,369.3975,350.6157,379.3975,354.6157,369.3975,350.6157,373.3975" style="stroke:#000000;stroke-width:1;"/><line style="stroke:#000000;stroke-width:1;" x1="350.6157" x2="350.6157" y1="300.5107" y2="443.3975"/><line style="stroke:#000000;stroke-width:1;" x1="350.6157" x2="292.0815" y1="443.3975" y2="443.3975"/><line style="stroke:#000000;stroke-width:1;" x1="292.0815" x2="292.0815" y1="443.3975" y2="489.6943"/><polygon fill="#000000" points="288.0815,479.6943,292.0815,489.6943,296.0815,479.6943,292.0815,483.6943" style="stroke:#000000;stroke-width:1;"/><line style="stroke:#000000;stroke-width:1;" x1="292.0815" x2="292.0815" y1="248.5107" y2="288.5107"/><polygon fill="#000000" points="288.0815,278.5107,292.0815,288.5107,296.0815,278.5107,292.0815,282.5107" style="stroke:#000000;stroke-width:1;"/><line style="stroke:#000000;stroke-width:1;" x1="292.0815" x2="292.0815" y1="660.0029" y2="688.5186"/><polygon fill="#000000" points="288.0815,678.5186,292.0815,688.5186,296.0815,678.5186,292.0815,682.5186" style="stroke:#000000;stroke-width:1;"/><line style="stroke:#000000;stroke-width:1;" x1="292.0815" x2="292.0815" y1="601.6318" y2="626.0342"/><polygon fill="#000000" points="288.0815,616.0342,292.0815,626.0342,296.0815,616.0342,292.0815,620.0342" style="stroke:#000000;stroke-width:1;"/><line style="stroke:#000000;stroke-width:1;" x1="328.6462" x2="350.6157" y1="589.6318" y2="589.6318"/><polygon fill="#000000" points="346.6157,658.5186,350.6157,668.5186,354.6157,658.5186,350.6157,662.5186" style="stroke:#000000;stroke-width:1;"/><line style="stroke:#000000;stroke-width:1;" x1="350.6157" x2="350.6157" y1="589.6318" y2="732.5186"/><line style="stroke:#000000;stroke-width:1;" x1="350.6157" x2="292.0815" y1="732.5186" y2="732.5186"/><line style="stroke:#000000;stroke-width:1;" x1="292.0815" x2="292.0815" y1="732.5186" y2="778.8154"/><polygon fill="#000000" points="288.0815,768.8154,292.0815,778.8154,296.0815,768.8154,292.0815,772.8154" style="stroke:#000000;stroke-width:1;"/><line style="stroke:#000000;stroke-width:1;" x1="292.0815" x2="292.0815" y1="537.6318" y2="577.6318"/><polygon fill="#000000" points="288.0815,567.6318,292.0815,577.6318,296.0815,567.6318,292.0815,571.6318" style="stroke:#000000;stroke-width:1;"/><line style="stroke:#000000;stroke-width:1;" x1="292.0815" x2="292.0815" y1="935.1553" y2="963.6709"/><polygon fill="#000000" points="288.0815,953.6709,292.0815,963.6709,296.0815,953.6709,292.0815,957.6709" style="stroke:#000000;stroke-width:1;"/><line style="stroke:#000000;stroke-width:1;" x1="292.0815" x2="292.0815" y1="876.7842" y2="901.1865"/><polygon fill="#000000" points="288.0815,891.1865,292.0815,901.1865,296.0815,891.1865,292.0815,895.1865" style="stroke:#000000;stroke-width:1;"/><line style="stroke:#000000;stroke-width:1;" x1="337.0654" x2="350.6157" y1="864.7842" y2="864.7842"/><polygon fill="#000000" points="346.6157,933.6709,350.6157,943.6709,354.6157,933.6709,350.6157,937.6709" style="stroke:#000000;stroke-width:1;"/><line style="stroke:#000000;stroke-width:1;" x1="350.6157" x2="350.6157" y1="864.7842" y2="1007.6709"/><line style="stroke:#000000;stroke-width:1;" x1="350.6157" x2="292.0815" y1="1007.6709" y2="1007.6709"/><line style="stroke:#000000;stroke-width:1;" x1="292.0815" x2="292.0815" y1="1007.6709" y2="1053.9678"/><polygon fill="#000000" points="288.0815,1043.9678,292.0815,1053.9678,296.0815,1043.9678,292.0815,1047.9678" style="stroke:#000000;stroke-width:1;"/><line style="stroke:#000000;stroke-width:1;" x1="292.0815" x2="292.0815" y1="812.7842" y2="852.7842"/><polygon fill="#000000" points="288.0815,842.7842,292.0815,852.7842,296.0815,842.7842,292.0815,846.7842" style="stroke:#000000;stroke-width:1;"/><line style="stroke:#000000;stroke-width:1;" x1="292.0815" x2="292.0815" y1="1210.3076" y2="1238.8232"/><polygon fill="#000000" points="288.0815,1228.8232,292.0815,1238.8232,296.0815,1228.8232,292.0815,1232.8232" style="stroke:#000000;stroke-width:1;"/><line style="stroke:#000000;stroke-width:1;" x1="292.0815" x2="292.0815" y1="1151.9365" y2="1176.3389"/><polygon fill="#000000" points="288.0815,1166.3389,292.0815,1176.3389,296.0815,1166.3389,292.0815,1170.3389" style="stroke:#000000;stroke-width:1;"/><line style="stroke:#000000;stroke-width:1;" x1="325.582" x2="350.6157" y1="1139.9365" y2="1139.9365"/><polygon fill="#000000" points="346.6157,1208.8232,350.6157,1218.8232,354.6157,1208.8232,350.6157,1212.8232" style="stroke:#000000;stroke-width:1;"/><line style="stroke:#000000;stroke-width:1;" x1="350.6157" x2="350.6157" y1="1139.9365" y2="1282.8232"/><line style="stroke:#000000;stroke-width:1;" x1="350.6157" x2="292.0815" y1="1282.8232" y2="1282.8232"/><line style="stroke:#000000;stroke-width:1;" x1="292.0815" x2="292.0815" y1="1282.8232" y2="1329.1201"/><polygon fill="#000000" points="288.0815,1319.1201,292.0815,1329.1201,296.0815,1319.1201,292.0815,1323.1201" style="stroke:#000000;stroke-width:1;"/><line style="stroke:#000000;stroke-width:1;" x1="292.0815" x2="292.0815" y1="1087.9365" y2="1127.9365"/><polygon fill="#000000" points="288.0815,1117.9365,292.0815,1127.9365,296.0815,1117.9365,292.0815,1121.9365" style="stroke:#000000;stroke-width:1;"/><line style="stroke:#000000;stroke-width:1;" x1="292.0815" x2="292.0815" y1="1499.4287" y2="1527.9443"/><polygon fill="#000000" points="288.0815,1517.9443,292.0815,1527.9443,296.0815,1517.9443,292.0815,1521.9443" style="stroke:#000000;stroke-width:1;"/><line style="stroke:#000000;stroke-width:1;" x1="292.0815" x2="292.0815" y1="1441.0576" y2="1465.46"/><polygon fill="#000000" points="288.0815,1455.46,292.0815,1465.46,296.0815,1455.46,292.0815,1459.46" style="stroke:#000000;stroke-width:1;"/><line style="stroke:#000000;stroke-width:1;" x1="344.5125" x2="356.5125" y1="1429.0576" y2="1429.0576"/><polygon fill="#000000" points="352.5125,1497.9443,356.5125,1507.9443,360.5125,1497.9443,356.5125,1501.9443" style="stroke:#000000;stroke-width:1;"/><line style="stroke:#000000;stroke-width:1;" x1="356.5125" x2="356.5125" y1="1429.0576" y2="1571.9443"/><line style="stroke:#000000;stroke-width:1;" x1="356.5125" x2="292.0815" y1="1571.9443" y2="1571.9443"/><line style="stroke:#000000;stroke-width:1;" x1="292.0815" x2="292.0815" y1="1571.9443" y2="1618.2412"/><polygon fill="#000000" points="288.0815,1608.2412,292.0815,1618.2412,296.0815,1608.2412,292.0815,1612.2412" style="stroke:#000000;stroke-width:1;"/><line style="stroke:#000000;stroke-width:1;" x1="292.0815" x2="292.0815" y1="1377.0576" y2="1417.0576"/><polygon fill="#000000" points="288.0815,1407.0576,292.0815,1417.0576,296.0815,1407.0576,292.0815,1411.0576" style="stroke:#000000;stroke-width:1;"/><line style="stroke:#000000;stroke-width:1;" x1="292.0815" x2="292.0815" y1="1774.5811" y2="1803.5654"/><polygon fill="#000000" points="288.0815,1793.5654,292.0815,1803.5654,296.0815,1793.5654,292.0815,1797.5654" style="stroke:#000000;stroke-width:1;"/><line style="stroke:#000000;stroke-width:1;" x1="292.0815" x2="292.0815" y1="1716.21" y2="1740.6123"/><polygon fill="#000000" points="288.0815,1730.6123,292.0815,1740.6123,296.0815,1730.6123,292.0815,1734.6123" style="stroke:#000000;stroke-width:1;"/><line style="stroke:#000000;stroke-width:1;" x1="337.0654" x2="531.6289" y1="1704.21" y2="1704.21"/><polygon fill="#000000" points="527.6289,1784.5811,531.6289,1794.5811,535.6289,1784.5811,531.6289,1788.5811" style="stroke:#000000;stroke-width:1;"/><line style="stroke:#000000;stroke-width:1;" x1="531.6289" x2="531.6289" y1="1704.21" y2="1867.5654"/><polygon fill="#000000" points="527.6289,1857.5654,531.6289,1867.5654,535.6289,1857.5654,531.6289,1861.5654" style="stroke:#000000;stroke-width:1;"/><line style="stroke:#000000;stroke-width:1;" x1="292.0815" x2="292.0815" y1="1652.21" y2="1692.21"/><polygon fill="#000000" points="288.0815,1682.21,292.0815,1692.21,296.0815,1682.21,292.0815,1686.21" style="stroke:#000000;stroke-width:1;"/><line style="stroke:#000000;stroke-width:1;" x1="531.6289" x2="531.6289" y1="1901.5342" y2="1921.5342"/><polygon fill="#000000" points="527.6289,1911.5342,531.6289,1921.5342,535.6289,1911.5342,531.6289,1915.5342" style="stroke:#000000;stroke-width:1;"/><line style="stroke:#000000;stroke-width:1;" x1="531.6289" x2="531.6289" y1="1955.5029" y2="1975.5029"/><polygon fill="#000000" points="527.6289,1965.5029,531.6289,1975.5029,535.6289,1965.5029,531.6289,1969.5029" style="stroke:#000000;stroke-width:1;"/><line style="stroke:#000000;stroke-width:1;" x1="72.7607" x2="72.7607" y1="154.2764" y2="164.9248"/><line style="stroke:#000000;stroke-width:1;" x1="72.7607" x2="292.0815" y1="164.9248" y2="164.9248"/><line style="stroke:#000000;stroke-width:1;" x1="292.0815" x2="292.0815" y1="164.9248" y2="200.5732"/><polygon fill="#000000" points="288.0815,190.5732,292.0815,200.5732,296.0815,190.5732,292.0815,194.5732" style="stroke:#000000;stroke-width:1;"/><text fill="#000000" font-family="Verdana" font-size="18" lengthAdjust="spacing" textLength="92.5752" x="25.4731" y="71.0625">Developer</text><text fill="#000000" font-family="Verdana" font-size="18" lengthAdjust="spacing" textLength="94.4385" x="243.8623" y="71.0625">CI Pipeline</text><text fill="#000000" font-family="Verdana" font-size="18" lengthAdjust="spacing" textLength="63.0264" x="499.1157" y="71.0625">Deploy</text><g class="legend" data-source-line="77"><rect fill="none" height="128.0781" rx="7.5" ry="7.5" style="stroke:#000000;stroke-width:1;" width="407.3115" x="108.5828" y="2002.5029"/><text fill="#000000" font-family="Verdana" font-size="14" font-weight="bold" lengthAdjust="spacing" textLength="37.126" x="118.4568" y="2022.498">Gate</text><text fill="#000000" font-family="Verdana" font-size="14" font-weight="bold" lengthAdjust="spacing" textLength="92.5039" x="209.2107" y="2022.498">Ferramenta</text><text fill="#000000" font-family="Verdana" font-size="14" font-weight="bold" lengthAdjust="spacing" textLength="59.4863" x="311.4626" y="2022.498">Criterio</text><text fill="#000000" font-family="Verdana" font-size="14" font-weight="bold" lengthAdjust="spacing" textLength="90.1729" x="415.8474" y="2022.498">Bloqueante</text><text fill="#000000" font-family="Verdana" font-size="14" lengthAdjust="spacing" textLength="26.0518" x="118.033" y="2038.7949">Lint</text><text fill="#000000" font-family="Verdana" font-size="14" lengthAdjust="spacing" textLength="71.4355" x="208.7869" y="2038.7949">ruff, eslint</text><text fill="#000000" font-family="Verdana" font-size="14" lengthAdjust="spacing" textLength="55.0977" x="311.0388" y="2038.7949">0 errors</text><text fill="#000000" font-family="Verdana" font-size="14" lengthAdjust="spacing" textLength="26.4141" x="415.4236" y="2038.7949">Sim</text><text fill="#000000" font-family="Verdana" font-size="14" lengthAdjust="spacing" textLength="81.8535" x="118.033" y="2055.0918">Type Check</text><text fill="#000000" font-family="Verdana" font-size="14" lengthAdjust="spacing" textLength="68.4756" x="208.7869" y="2055.0918">mypy, tsc</text><text fill="#000000" font-family="Verdana" font-size="14" lengthAdjust="spacing" textLength="55.0977" x="311.0388" y="2055.0918">0 errors</text><text fill="#000000" font-family="Verdana" font-size="14" lengthAdjust="spacing" textLength="26.4141" x="415.4236" y="2055.0918">Sim</text><text fill="#000000" font-family="Verdana" font-size="14" lengthAdjust="spacing" textLength="70.1914" x="118.033" y="2071.3887">Unit Tests</text><text fill="#000000" font-family="Verdana" font-size="14" lengthAdjust="spacing" textLength="92.0186" x="208.7869" y="2071.3887">pytest, vitest</text><text fill="#000000" font-family="Verdana" font-size="14" lengthAdjust="spacing" textLength="76.5283" x="311.0388" y="2071.3887">100% pass</text><text fill="#000000" font-family="Verdana" font-size="14" lengthAdjust="spacing" textLength="26.4141" x="415.4236" y="2071.3887">Sim</text><text fill="#000000" font-family="Verdana" font-size="14" lengthAdjust="spacing" textLength="67.0742" x="118.033" y="2087.6855">Coverage</text><text fill="#000000" font-family="Verdana" font-size="14" lengthAdjust="spacing" textLength="64.9961" x="208.7869" y="2087.6855">coverage</text><text fill="#000000" font-family="Verdana" font-size="14" lengthAdjust="spacing" textLength="47.2979" x="311.0388" y="2087.6855">&gt; 80%</text><text fill="#000000" font-family="Verdana" font-size="14" lengthAdjust="spacing" textLength="26.4141" x="415.4236" y="2087.6855">Sim</text><text fill="#000000" font-family="Verdana" font-size="14" lengthAdjust="spacing" textLength="57.4902" x="118.033" y="2103.9824">Security</text><text fill="#000000" font-family="Verdana" font-size="14" lengthAdjust="spacing" textLength="73.6367" x="208.7869" y="2103.9824">Trivy/Snyk</text><text fill="#000000" font-family="Verdana" font-size="14" lengthAdjust="spacing" textLength="95.4844" x="311.0388" y="2103.9824">0 critical/high</text><text fill="#000000" font-family="Verdana" font-size="14" lengthAdjust="spacing" textLength="26.4141" x="415.4236" y="2103.9824">Sim</text><text fill="#000000" font-family="Verdana" font-size="14" lengthAdjust="spacing" textLength="26.5986" x="118.033" y="2120.2793">E2E</text><text fill="#000000" font-family="Verdana" font-size="14" lengthAdjust="spacing" textLength="73.541" x="208.7869" y="2120.2793">Playwright</text><text fill="#000000" font-family="Verdana" font-size="14" lengthAdjust="spacing" textLength="76.5283" x="311.0388" y="2120.2793">100% pass</text><text fill="#000000" font-family="Verdana" font-size="14" lengthAdjust="spacing" textLength="26.4141" x="415.4236" y="2120.2793">Sim</text><line style="stroke:#000000;stroke-width:1;" x1="113.5828" x2="510.8943" y1="2009.5029" y2="2009.5029"/><line style="stroke:#000000;stroke-width:1;" x1="113.5828" x2="510.8943" y1="2025.7998" y2="2025.7998"/><line style="stroke:#000000;stroke-width:1;" x1="113.5828" x2="510.8943" y1="2042.0967" y2="2042.0967"/><line style="stroke:#000000;stroke-width:1;" x1="113.5828" x2="510.8943" y1="2058.3936" y2="2058.3936"/><line style="stroke:#000000;stroke-width:1;" x1="113.5828" x2="510.8943" y1="2074.6904" y2="2074.6904"/><line style="stroke:#000000;stroke-width:1;" x1="113.5828" x2="510.8943" y1="2090.9873" y2="2090.9873"/><line style="stroke:#000000;stroke-width:1;" x1="113.5828" x2="510.8943" y1="2107.2842" y2="2107.2842"/><line style="stroke:#000000;stroke-width:1;" x1="113.5828" x2="510.8943" y1="2123.5811" y2="2123.5811"/><line style="stroke:#000000;stroke-width:1;" x1="113.5828" x2="113.5828" y1="2009.5029" y2="2123.5811"/><line style="stroke:#000000;stroke-width:1;" x1="204.3367" x2="204.3367" y1="2009.5029" y2="2123.5811"/><line style="stroke:#000000;stroke-width:1;" x1="306.5886" x2="306.5886" y1="2009.5029" y2="2123.5811"/><line style="stroke:#000000;stroke-width:1;" x1="410.9734" x2="410.9734" y1="2009.5029" y2="2123.5811"/><line style="stroke:#000000;stroke-width:1;" x1="510.8943" x2="510.8943" y1="2009.5029" y2="2123.5811"/></g><g class="footer" data-source-line="87"><text fill="#000000" font-family="Verdana" font-size="10" lengthAdjust="spacing" textLength="264.3848" x="180.0461" y="2150.8633">JurisFinder LEAN - Quality Gates CI/CD | Janeiro 2026</text></g><?plantuml-src lPLHRzem4CVV_IbkdIe1wmHDMzI5hXDD0cfLjNJGFVN5JG-mIEpCDapHik--So0m17r3uoLdzFVbbxlxsn_i55E4BE52CcQ5JH2UvZmHDeS-jsZWCmItpI24WSWm4H8PCpCXCwvv2XfZo-M4zlncGByR7iycMitbMw0IfQ-k9fJY-Xe-HcSzhnVkrsJS6AS9BgDsy6M_Pin5uZIzNX267ll3M17Y0XELeIwOiLnRvWSgJOM5Jp2Ocsc79C7jchfWR0Dxr6ZqkwC8Jdsu5z8s6aUmHkK6-gUhp_7rV3o6sY2tKoNhBn8DfR9G6-KP3cCjCbll48iWJGjGQwNDjpfGHINKXYAjCqmCGks1g_eotytzuzDpr0qVE-NQM9Knb6zYl8_Eyy6z288fnhCTHgzYJFCi_uVHclX_0Pxvy2ofu2Cqrkm0dbM0MKvZvDgo42weW4vRhMDmlJyWqRaFWLgWvXFSuJclUEALWgOtKthDSmsNhUC3ibpuCCHuhfsJXZ6NEq0N5T18YqKEJHZAVFOYXztXY8eLOaQfKSQ2cqqFgQTMn3nfJiLaUa3OjW-H5xtJoNO5EaXu_alJcm_OHF9nbgYyOFuo07Uo04zV1KgB7RO-7_pkuFlZZp87AnEm12UK15wLjIgbnCNNyiXopnuDEqyf0tUhWAg6MYWNtoJgvnovT3gtfpm1wE6iVW8hXnTGsOL2-gALT6D7MZZVdO2psplgZJTeiJJ1oSe3zCUwSbjxgkcbCDw4vMXkwTQJHL1kUffkTagGhGdPskCQNC2cXtiXN46NTMLih1IL3UxeJQOdQ1Wrt4VT1xeHjc-8vVrGm1sNABG2h-Mr_m80?></g></svg>