<?plantuml 1.2026.1beta5?><svg xmlns="http://www.w3.org/2000/svg" xmlns:xlink="http://www.w3.org/1999/xlink" contentStyleType="text/css" data-diagram-type="DESCRIPTION" height="650px" preserveAspectRatio="none" style="width:734px;height:650px;background:#FFFFFF;" version="1.1" viewBox="0 0 734 650" width="734px" zoomAndPan="magnify"><title>Comparacao: QA Tradicional vs Shift-Left (LEAN)</title><defs/><g><g class="title" data-source-line="3"><text fill="#000000" font-family="Verdana" font-size="22" font-weight="bold" lengthAdjust="spacing" textLength="603.3564" x="60.8568" y="35.4209">Comparacao: QA Tradicional vs Shift-Left (LEAN)</text></g><!--cluster ORIG--><g class="cluster" data-qualified-name="ORIG" data-source-line="10" id="ent0002"><rect fill="#FFCDD2" height="119.3" rx="2.5" ry="2.5" style="stroke:#000000;stroke-width:1;" width="513" x="125.45" y="58.6094"/><text fill="#000000" font-family="Verdana" font-size="14" font-style="italic" lengthAdjust="spacing" textLength="69.46" x="347.22" y="73.6045">&#171;original&#187;</text><text fill="#000000" font-family="Verdana" font-size="14" font-weight="bold" lengthAdjust="spacing" textLength="249.04" x="257.43" y="89.9014">PROPOSTA ORIGINAL (5 meses)</text></g><!--cluster LEAN--><g class="cluster" data-qualified-name="LEAN" data-source-line="31" id="ent0015"><rect fill="#C8E6C9" height="135.59" rx="2.5" ry="2.5" style="stroke:#000000;stroke-width:1;" width="417" x="221.45" y="217.9094"/><text fill="#000000" font-family="Verdana" font-size="14" font-style="italic" lengthAdjust="spacing" textLength="47.0859" x="406.407" y="232.9045">&#171;lean&#187;</text><text fill="#000000" font-family="Verdana" font-size="14" font-weight="bold" lengthAdjust="spacing" textLength="214.0127" x="322.9437" y="249.2014">PROPOSTA LEAN (4 meses)</text></g><!--entity O1--><g class="entity" data-qualified-name="ORIG.O1" data-source-line="11" id="ent0003"><rect fill="#E0E0E0" height="36.2969" rx="2.5" ry="2.5" style="stroke:#000000;stroke-width:1;" width="61.3438" x="149.78" y="117.6094"/><text fill="#000000" font-family="Verdana" font-size="14" lengthAdjust="spacing" textLength="41.3438" x="159.78" y="140.6045">Mes 1</text></g><!--entity O2--><g class="entity" data-qualified-name="ORIG.O2" data-source-line="12" id="ent0004"><rect fill="#E0E0E0" height="36.2969" rx="2.5" ry="2.5" style="stroke:#000000;stroke-width:1;" width="61.3438" x="245.78" y="117.6094"/><text fill="#000000" font-family="Verdana" font-size="14" lengthAdjust="spacing" textLength="41.3438" x="255.78" y="140.6045">Mes 2</text></g><!--entity O3--><g class="entity" data-qualified-name="ORIG.O3" data-source-line="13" id="ent0005"><rect fill="#E0E0E0" height="36.2969" rx="2.5" ry="2.5" style="stroke:#000000;stroke-width:1;" width="61.3438" x="341.78" y="117.6094"/><text fill="#000000" font-family="Verdana" font-size="14" lengthAdjust="spacing" textLength="41.3438" x="351.78" y="140.6045">Mes 3</text></g><!--entity O4--><g class="entity" data-qualified-name="ORIG.O4" data-source-line="14" id="ent0006"><rect fill="#FFCDD2" height="36.2969" rx="2.5" ry="2.5" style="stroke:#000000;stroke-width:1;" width="61.3438" x="437.78" y="117.6094"/><text fill="#000000" font-family="Verdana" font-size="14" lengthAdjust="spacing" textLength="41.3438" x="447.78" y="140.6045">Mes 4</text></g><!--entity O5--><g class="entity" data-qualified-name="ORIG.O5" data-source-line="15" id="ent0007"><rect fill="#FFCDD2" height="36.2969" rx="2.5" ry="2.5" style="stroke:#000000;stroke-width:1;" width="61.3438" x="533.78" y="117.6094"/><text fill="#000000" font-family="Verdana" font-size="14" lengthAdjust="spacing" textLength="41.3438" x="543.78" y="140.6045">Mes 5</text></g><!--entity L1--><g class="entity" data-qualified-name="LEAN.L1" data-source-line="32" id="ent0016"><rect fill="#C8E6C9" height="52.5938" rx="2.5" ry="2.5" style="stroke:#000000;stroke-width:1;" width="61.3438" x="245.78" y="276.9094"/><text fill="#000000" font-family="Verdana" font-size="14" lengthAdjust="spacing" textLength="41.3438" x="255.78" y="299.9045">Mes 1</text><text fill="#000000" font-family="Verdana" font-size="14" font-weight="bold" lengthAdjust="spacing" textLength="22.7363" x="255.78" y="316.2014">QA</text></g><!--entity L2--><g class="entity" data-qualified-name="LEAN.L2" data-source-line="33" id="ent0017"><rect fill="#C8E6C9" height="52.5938" rx="2.5" ry="2.5" style="stroke:#000000;stroke-width:1;" width="61.3438" x="341.78" y="276.9094"/><text fill="#000000" font-family="Verdana" font-size="14" lengthAdjust="spacing" textLength="41.3438" x="351.78" y="299.9045">Mes 2</text><text fill="#000000" font-family="Verdana" font-size="14" font-weight="bold" lengthAdjust="spacing" textLength="22.7363" x="351.78" y="316.2014">QA</text></g><!--entity L3--><g class="entity" data-qualified-name="LEAN.L3" data-source-line="34" id="ent0018"><rect fill="#C8E6C9" height="52.5938" rx="2.5" ry="2.5" style="stroke:#000000;stroke-width:1;" width="61.3438" x="437.78" y="276.9094"/><text fill="#000000" font-family="Verdana" font-size="14" lengthAdjust="spacing" textLength="41.3438" x="447.78" y="299.9045">Mes 3</text><text fill="#000000" font-family="Verdana" font-size="14" font-weight="bold" lengthAdjust="spacing" textLength="22.7363" x="447.78" y="316.2014">QA</text></g><!--entity L4--><g class="entity" data-qualified-name="LEAN.L4" data-source-line="35" id="ent0019"><rect fill="#C8E6C9" height="52.5938" rx="2.5" ry="2.5" style="stroke:#000000;stroke-width:1;" width="61.3438" x="533.78" y="276.9094"/><text fill="#000000" font-family="Verdana" font-size="14" lengthAdjust="spacing" textLength="41.3438" x="543.78" y="299.9045">Mes 4</text><text fill="#000000" font-family="Verdana" font-size="14" font-weight="bold" lengthAdjust="spacing" textLength="22.7363" x="543.78" y="316.2014">QA</text></g><g class="entity" data-qualified-name="GMN12" data-source-line="24" id="ent0013"><path d="M11,260.3694 L11,346.0334 L197.896,346.0334 L197.896,270.3694 L187.896,260.3694 L11,260.3694" fill="#FFFFFF" style="stroke:#000000;stroke-width:1;"/><path d="M187.896,260.3694 L187.896,270.3694 L197.896,270.3694 L187.896,260.3694" fill="#FFFFFF" style="stroke:#000000;stroke-width:1;"/><text fill="#000000" font-family="Verdana" font-size="13" font-weight="bold" lengthAdjust="spacing" textLength="82.7036" x="17" y="277.4363">Problemas:</text><text fill="#000000" font-family="Verdana" font-size="13" lengthAdjust="spacing" textLength="161.3955" x="17" y="292.5691">- QA entra so no Mes 4-5</text><text fill="#000000" font-family="Verdana" font-size="13" lengthAdjust="spacing" textLength="165.896" x="17" y="307.7019">- Bugs detectados TARDE</text><text fill="#000000" font-family="Verdana" font-size="13" lengthAdjust="spacing" textLength="165.7754" x="17" y="322.8347">- Custo de correcao ALTO</text><text fill="#000000" font-family="Verdana" font-size="13" lengthAdjust="spacing" textLength="162.5635" x="17" y="337.9675">- Retrabalho significativo</text></g><g class="entity" data-qualified-name="GMN23" data-source-line="43" id="ent0024"><path d="M533.82,406.0394 L533.82,491.7034 L727.07,491.7034 L727.07,416.0394 L717.07,406.0394 L533.82,406.0394" fill="#FFFFFF" style="stroke:#000000;stroke-width:1;"/><path d="M717.07,406.0394 L717.07,416.0394 L727.07,416.0394 L717.07,406.0394" fill="#FFFFFF" style="stroke:#000000;stroke-width:1;"/><text fill="#000000" font-family="Verdana" font-size="13" font-weight="bold" lengthAdjust="spacing" textLength="83.3892" x="539.82" y="423.1063">Vantagens:</text><text fill="#000000" font-family="Verdana" font-size="13" lengthAdjust="spacing" textLength="169.1333" x="539.82" y="438.2391">- QA desde o Mes 1 (50%)</text><text fill="#000000" font-family="Verdana" font-size="13" lengthAdjust="spacing" textLength="159.3389" x="539.82" y="453.3719">- Bugs detectados CEDO</text><text fill="#000000" font-family="Verdana" font-size="13" lengthAdjust="spacing" textLength="172.25" x="539.82" y="468.5047">- Custo de correcao BAIXO</text><text fill="#000000" font-family="Verdana" font-size="13" lengthAdjust="spacing" textLength="135.5796" x="539.82" y="483.6375">- Qualidade continua</text></g><!--link O1 to O2--><g class="link" data-entity-1="ent0003" data-entity-2="ent0004" data-link-type="dependency" data-source-line="17" id="lnk8"><path d="M211.57,135.7594 C222.81,135.7594 228.04,135.7594 239.28,135.7594" fill="none" id="O1-to-O2" style="stroke:#000000;stroke-width:1;"/><polygon fill="#000000" points="245.28,135.7594,236.28,131.7594,240.28,135.7594,236.28,139.7594,245.28,135.7594" style="stroke:#000000;stroke-width:1;"/></g><!--link O2 to O3--><g class="link" data-entity-1="ent0004" data-entity-2="ent0005" data-link-type="dependency" data-source-line="18" id="lnk9"><path d="M307.57,135.7594 C318.81,135.7594 324.04,135.7594 335.28,135.7594" fill="none" id="O2-to-O3" style="stroke:#000000;stroke-width:1;"/><polygon fill="#000000" points="341.28,135.7594,332.28,131.7594,336.28,135.7594,332.28,139.7594,341.28,135.7594" style="stroke:#000000;stroke-width:1;"/></g><!--link O3 to O4--><g class="link" data-entity-1="ent0005" data-entity-2="ent0006" data-link-type="dependency" data-source-line="19" id="lnk10"><path d="M403.57,135.7594 C414.81,135.7594 420.04,135.7594 431.28,135.7594" fill="none" id="O3-to-O4" style="stroke:#000000;stroke-width:1;"/><polygon fill="#000000" points="437.28,135.7594,428.28,131.7594,432.28,135.7594,428.28,139.7594,437.28,135.7594" style="stroke:#000000;stroke-width:1;"/></g><!--link O4 to O5--><g class="link" data-entity-1="ent0006" data-entity-2="ent0007" data-link-type="dependency" data-source-line="20" id="lnk11"><path d="M499.57,135.7594 C510.81,135.7594 516.04,135.7594 527.28,135.7594" fill="none" id="O4-to-O5" style="stroke:#000000;stroke-width:1;"/><polygon fill="#000000" points="533.28,135.7594,524.28,131.7594,528.28,135.7594,524.28,139.7594,533.28,135.7594" style="stroke:#000000;stroke-width:1;"/></g><!--link ORIG to GMN12--><g class="link" data-entity-1="ent0002" data-entity-2="ent0013" data-link-type="association" data-source-line="24" id="lnk14"><path d="M623.6243,178.0174 C623.5825,178.11 623.5405,178.2025 623.4982,178.2949 C623.4137,178.4796 623.3281,178.6638 623.2416,178.8475 C620.4719,184.7256 616.6675,190.0619 611.45,193.9094 C594.36,206.4994 249.4,194.6594 229.45,201.9094 C196.63,213.8294 165.95,238.1694 143.19,259.8794" fill="none" id="ORIG-GMN12" style="stroke:#000000;stroke-width:1;stroke-dasharray:7,7;"/></g><!--link L1 to L2--><g class="link" data-entity-1="ent0016" data-entity-2="ent0017" data-link-type="dependency" data-source-line="37" id="lnk20"><path d="M307.57,303.1994 C318.81,303.1994 324.04,303.1994 335.28,303.1994" fill="none" id="L1-to-L2" style="stroke:#000000;stroke-width:1;"/><polygon fill="#000000" points="341.28,303.1994,332.28,299.1994,336.28,303.1994,332.28,307.1994,341.28,303.1994" style="stroke:#000000;stroke-width:1;"/></g><!--link L2 to L3--><g class="link" data-entity-1="ent0017" data-entity-2="ent0018" data-link-type="dependency" data-source-line="38" id="lnk21"><path d="M403.57,303.1994 C414.81,303.1994 420.04,303.1994 431.28,303.1994" fill="none" id="L2-to-L3" style="stroke:#000000;stroke-width:1;"/><polygon fill="#000000" points="437.28,303.1994,428.28,299.1994,432.28,303.1994,428.28,307.1994,437.28,303.1994" style="stroke:#000000;stroke-width:1;"/></g><!--link L3 to L4--><g class="link" data-entity-1="ent0018" data-entity-2="ent0019" data-link-type="dependency" data-source-line="39" id="lnk22"><path d="M499.57,303.1994 C510.81,303.1994 516.04,303.1994 527.28,303.1994" fill="none" id="L3-to-L4" style="stroke:#000000;stroke-width:1;"/><polygon fill="#000000" points="533.28,303.1994,524.28,299.1994,528.28,303.1994,524.28,307.1994,533.28,303.1994" style="stroke:#000000;stroke-width:1;"/></g><!--link LEAN to GMN23--><g class="link" data-entity-1="ent0015" data-entity-2="ent0024" data-link-type="association" data-source-line="43" id="lnk25"><path d="M630.45,353.7642 C630.45,353.9323 630.45,354.1006 630.45,354.2691 C630.45,354.943 630.45,355.6197 630.45,356.299 C630.45,361.7334 630.45,367.3311 630.45,372.9541 C630.45,384.2 630.45,395.5469 630.45,405.8894" fill="none" id="LEAN-GMN23" style="stroke:#000000;stroke-width:1;stroke-dasharray:7,7;"/></g><!--link ORIG to LEAN--><g class="legend" data-source-line="52"><rect fill="none" height="111.7813" rx="7.5" ry="7.5" style="stroke:#000000;stroke-width:1;" width="269.8955" x="445.1745" y="502.7034"/><text fill="#000000" font-family="Verdana" font-size="14" font-weight="bold" lengthAdjust="spacing" textLength="63.2939" x="455.0485" y="522.6986">Aspecto</text><text fill="#000000" font-family="Verdana" font-size="14" font-weight="bold" lengthAdjust="spacing" textLength="62.6377" x="569.6257" y="522.6986">Original</text><text fill="#000000" font-family="Verdana" font-size="14" font-weight="bold" lengthAdjust="spacing" textLength="41.0361" x="642.0934" y="522.6986">LEAN</text><text fill="#000000" font-family="Verdana" font-size="14" lengthAdjust="spacing" textLength="62.0908" x="454.6247" y="538.9954">Inicio QA</text><text fill="#000000" font-family="Verdana" font-size="14" lengthAdjust="spacing" textLength="41.3438" x="569.2018" y="538.9954">Mes 4</text><text fill="#000000" font-family="Verdana" font-size="14" lengthAdjust="spacing" textLength="41.3438" x="641.6696" y="538.9954">Mes 1</text><text fill="#000000" font-family="Verdana" font-size="14" lengthAdjust="spacing" textLength="83.877" x="454.6247" y="555.2923">Duracao QA</text><text fill="#000000" font-family="Verdana" font-size="14" lengthAdjust="spacing" textLength="58.8096" x="569.2018" y="555.2923">2 meses</text><text fill="#000000" font-family="Verdana" font-size="14" lengthAdjust="spacing" textLength="58.8096" x="641.6696" y="555.2923">4 meses</text><text fill="#000000" font-family="Verdana" font-size="14" lengthAdjust="spacing" textLength="50.5996" x="454.6247" y="571.5892">Modelo</text><text fill="#000000" font-family="Verdana" font-size="14" lengthAdjust="spacing" textLength="63.5674" x="569.2018" y="571.5892">Waterfall</text><text fill="#000000" font-family="Verdana" font-size="14" lengthAdjust="spacing" textLength="63.9502" x="641.6696" y="571.5892">Shift-Left</text><text fill="#000000" font-family="Verdana" font-size="14" lengthAdjust="spacing" textLength="104.4258" x="454.6247" y="587.8861">Deteccao bugs</text><text fill="#000000" font-family="Verdana" font-size="14" lengthAdjust="spacing" textLength="44.2422" x="569.2018" y="587.8861">Tardia</text><text fill="#000000" font-family="Verdana" font-size="14" lengthAdjust="spacing" textLength="55.3848" x="641.6696" y="587.8861">Precoce</text><text fill="#000000" font-family="Verdana" font-size="14" lengthAdjust="spacing" textLength="105.6768" x="454.6247" y="604.1829">Custo correcao</text><text fill="#000000" font-family="Verdana" font-size="14" lengthAdjust="spacing" textLength="27.5215" x="569.2018" y="604.1829">Alto</text><text fill="#000000" font-family="Verdana" font-size="14" lengthAdjust="spacing" textLength="38.9238" x="641.6696" y="604.1829">Baixo</text><line style="stroke:#000000;stroke-width:1;" x1="450.1745" x2="710.07" y1="509.7034" y2="509.7034"/><line style="stroke:#000000;stroke-width:1;" x1="450.1745" x2="710.07" y1="526.0003" y2="526.0003"/><line style="stroke:#000000;stroke-width:1;" x1="450.1745" x2="710.07" y1="542.2972" y2="542.2972"/><line style="stroke:#000000;stroke-width:1;" x1="450.1745" x2="710.07" y1="558.5941" y2="558.5941"/><line style="stroke:#000000;stroke-width:1;" x1="450.1745" x2="710.07" y1="574.8909" y2="574.8909"/><line style="stroke:#000000;stroke-width:1;" x1="450.1745" x2="710.07" y1="591.1878" y2="591.1878"/><line style="stroke:#000000;stroke-width:1;" x1="450.1745" x2="710.07" y1="607.4847" y2="607.4847"/><line style="stroke:#000000;stroke-width:1;" x1="450.1745" x2="450.1745" y1="509.7034" y2="607.4847"/><line style="stroke:#000000;stroke-width:1;" x1="564.7516" x2="564.7516" y1="509.7034" y2="607.4847"/><line style="stroke:#000000;stroke-width:1;" x1="637.2194" x2="637.2194" y1="509.7034" y2="607.4847"/><line style="stroke:#000000;stroke-width:1;" x1="710.07" x2="710.07" y1="509.7034" y2="607.4847"/></g><g class="footer" data-source-line="61"><text fill="#000000" font-family="Verdana" font-size="10" lengthAdjust="spacing" textLength="312.1777" x="206.4461" y="634.7669">JurisFinder LEAN - Abordagem Shift-Left Testing | Janeiro 2026</text></g><?plantuml-src VPHXQzim48Q_-rVSKWQDmP0uJjbALt2TTAIuJPk6RR3jWs8fZgWj5Kdk1il--qwIbpaZJVB1ukxnwUvzPRqn6rOpUAu85q5WkAaOPB9-9eeKH9x3GmfBHIWlk1IaWXSDZnk-Db7ErWPEysbwrmy2_SI5VQC6nGf3H8b5VWM0lojIF9LADe9cifBgua8gNdAiT7a99zVNsMGI7-OgHeHbidVJi-nzy3i8_fNkXU7zOdu_VrocC5_CFixkqXnEnr0ppNG_37kmjm_HZcexwfIvPHg6FPSVmibqOF-7cDWpyJ5cv9dHCIRnJB8t-N_Cs3FZ7UCWx2_2WJOckiG-V2ZkX4O-DEg44XzAEg6nbL58ms0bZP4roBLJ1abKLCbLnMgYpyCG0v5rdWcZ26W9Ge8R81gxr5LJQg3CsDQfrB1C5vEfosIDDX9JK4Y5an49QRwSkzI2OR4LgJOID2y5N_E26FuY0oOesAvUizWUCZXDzknjZmTAvRA7hVqcml0XjIzORhWxJ8SitcVZO-nednqTOvDzDjcn3iuxjkRUrhnZQ-vjpJksvia13wq4piDFH1XICj7ra3ADTdZ_XlYL3Dxs3tgOJIVpLooyIcTVVEwX8HMdn2M5uQ8X7VVSHnPztN1AcVXEvGzX6xQz1HKhBUUcm4BR3v3gPznPskMy_LJjshcvjGZCXBrqx0XRV_ZQvx3DJnftHNaWzgS3LydVbODk9MKLxWAVYM5gJIhSfNk3jQMi3BRMoegoXILHb1DStAC0ic0jvfNPoRA5jB8JuEN5V-BJIU4d3OArH4qKt3IAwsikAAxTR16aAwaekbHt-rWoZNAMMEo62CQLX7WGd_q1?></g></svg>