<?plantuml 1.2026.1beta5?><svg xmlns="http://www.w3.org/2000/svg" xmlns:xlink="http://www.w3.org/1999/xlink" contentStyleType="text/css" data-diagram-type="DESCRIPTION" height="1346px" preserveAspectRatio="none" style="width:649px;height:1346px;background:#FFFFFF;" version="1.1" viewBox="0 0 649 1346" width="649px" zoomAndPan="magnify"><title>Fluxo Detalhado de Processamento - Indexacao</title><defs/><g><g class="title" data-source-line="3"><text fill="#000000" font-family="Verdana" font-size="22" font-weight="bold" lengthAdjust="spacing" textLength="589.8643" x="25.3329" y="35.4209">Fluxo Detalhado de Processamento - Indexacao</text></g><!--cluster 1. CRAWLING--><g class="cluster" data-qualified-name="1. CRAWLING" data-source-line="12" id="ent0002"><rect fill="#E3F2FD" height="119.59" rx="2.5" ry="2.5" style="stroke:#000000;stroke-width:1;" width="164" x="104.53" y="58.6094"/><text fill="#000000" font-family="Verdana" font-size="14" font-style="italic" lengthAdjust="spacing" textLength="54.5029" x="159.2785" y="73.6045">&#171;crawl&#187;</text><text fill="#000000" font-family="Verdana" font-size="14" font-weight="bold" lengthAdjust="spacing" textLength="104.6035" x="134.2282" y="89.9014">1. CRAWLING</text></g><!--cluster 2. OCR (se necessario)--><g class="cluster" data-qualified-name="2. OCR .se necessario." data-source-line="16" id="ent0004"><rect fill="#FFF3E0" height="265.49" rx="2.5" ry="2.5" style="stroke:#000000;stroke-width:1;" width="193" x="107.53" y="211.1994"/><text fill="#000000" font-family="Verdana" font-size="14" font-style="italic" lengthAdjust="spacing" textLength="39.1494" x="184.4553" y="226.1945">&#171;ocr&#187;</text><text fill="#000000" font-family="Verdana" font-size="14" font-weight="bold" lengthAdjust="spacing" textLength="177.9531" x="115.0534" y="242.4914">2. OCR (se necessario)</text></g><!--cluster 3. PARSING--><g class="cluster" data-qualified-name="3. PARSING" data-source-line="21" id="ent0007"><rect fill="#E8F5E9" height="119.59" rx="2.5" ry="2.5" style="stroke:#000000;stroke-width:1;" width="106" x="262.53" y="509.6894"/><text fill="#000000" font-family="Verdana" font-size="14" font-style="italic" lengthAdjust="spacing" textLength="71.2373" x="279.9113" y="524.6845">&#171;process&#187;</text><text fill="#000000" font-family="Verdana" font-size="14" font-weight="bold" lengthAdjust="spacing" textLength="90.3096" x="270.3752" y="540.9814">3. PARSING</text></g><!--cluster 4. CHUNKING--><g class="cluster" data-qualified-name="4. CHUNKING" data-source-line="25" id="ent0009"><rect fill="#E8F5E9" height="135.89" rx="2.5" ry="2.5" style="stroke:#000000;stroke-width:1;" width="130" x="247.53" y="669.2494"/><text fill="#000000" font-family="Verdana" font-size="14" font-style="italic" lengthAdjust="spacing" textLength="71.2373" x="276.9113" y="684.2445">&#171;process&#187;</text><text fill="#000000" font-family="Verdana" font-size="14" font-weight="bold" lengthAdjust="spacing" textLength="104.2754" x="260.3923" y="700.5414">4. CHUNKING</text></g><!--cluster 5. EMBEDDING--><g class="cluster" data-qualified-name="5. EMBEDDING" data-source-line="29" id="ent0011"><rect fill="#E8F5E9" height="135.89" rx="2.5" ry="2.5" style="stroke:#000000;stroke-width:1;" width="131" x="363.53" y="838.1394"/><text fill="#000000" font-family="Verdana" font-size="14" font-style="italic" lengthAdjust="spacing" textLength="71.2373" x="393.4113" y="853.1345">&#171;process&#187;</text><text fill="#000000" font-family="Verdana" font-size="14" font-weight="bold" lengthAdjust="spacing" textLength="115.3223" x="371.3689" y="869.4314">5. EMBEDDING</text></g><!--cluster 6. CLASSIFICATION--><g class="cluster" data-qualified-name="6. CLASSIFICATION" data-source-line="33" id="ent0013"><rect fill="#E8F5E9" height="135.89" rx="2.5" ry="2.5" style="stroke:#000000;stroke-width:1;" width="165" x="472.53" y="1007.0294"/><text fill="#000000" font-family="Verdana" font-size="14" font-style="italic" lengthAdjust="spacing" textLength="71.2373" x="519.4113" y="1022.0245">&#171;process&#187;</text><text fill="#000000" font-family="Verdana" font-size="14" font-weight="bold" lengthAdjust="spacing" textLength="149.5977" x="480.2312" y="1038.3214">6. CLASSIFICATION</text></g><!--cluster 7. INDEXING--><g class="cluster" data-qualified-name="7. INDEXING" data-source-line="37" id="ent0015"><rect fill="#F3E5F5" height="119.59" rx="2.5" ry="2.5" style="stroke:#000000;stroke-width:1;" width="128" x="359.53" y="1184.0694"/><text fill="#000000" font-family="Verdana" font-size="14" font-style="italic" lengthAdjust="spacing" textLength="52.8486" x="397.1057" y="1199.0645">&#171;store&#187;</text><text fill="#000000" font-family="Verdana" font-size="14" font-weight="bold" lengthAdjust="spacing" textLength="97.2549" x="374.9026" y="1215.3614">7. INDEXING</text></g><!--cluster 8. METADATA--><g class="cluster" data-qualified-name="8. METADATA" data-source-line="41" id="ent0017"><rect fill="#F3E5F5" height="135.89" rx="2.5" ry="2.5" style="stroke:#000000;stroke-width:1;" width="132" x="511.53" y="1175.9194"/><text fill="#000000" font-family="Verdana" font-size="14" font-style="italic" lengthAdjust="spacing" textLength="52.8486" x="551.1057" y="1190.9145">&#171;store&#187;</text><text fill="#000000" font-family="Verdana" font-size="14" font-weight="bold" lengthAdjust="spacing" textLength="106.6543" x="524.2029" y="1207.2114">8. METADATA</text></g><!--entity step1--><g class="entity" data-qualified-name="1. CRAWLING.step1" data-source-line="13" id="ent0003"><rect fill="#FFFFFF" height="52.5938" rx="2.5" ry="2.5" style="stroke:#000000;stroke-width:1;" width="131.9521" x="120.56" y="109.6094"/><text fill="#000000" font-family="Verdana" font-size="14" lengthAdjust="spacing" textLength="61.0176" x="130.56" y="132.6045">Detectar</text><text fill="#000000" font-family="Verdana" font-size="14" lengthAdjust="spacing" textLength="111.9521" x="130.56" y="148.9014">novos/alterados</text></g><!--entity step2--><g class="entity" data-qualified-name="2. OCR .se necessario..step2" data-source-line="17" id="ent0005"><rect fill="#FFFFFF" height="52.5938" rx="2.5" ry="2.5" style="stroke:#000000;stroke-width:1;" width="109.4756" x="131.8" y="262.1994"/><text fill="#000000" font-family="Verdana" font-size="14" lengthAdjust="spacing" textLength="89.4756" x="141.8" y="285.1945">PDF/Imagem</text><text fill="#000000" font-family="Verdana" font-size="14" lengthAdjust="spacing" textLength="83.1318" x="141.8" y="301.4914">escaneado?</text></g><!--entity step2a--><g class="entity" data-qualified-name="2. OCR .se necessario..step2a" data-source-line="18" id="ent0006"><rect fill="#FFFFFF" height="68.8906" rx="2.5" ry="2.5" style="stroke:#000000;stroke-width:1;" width="118.7451" x="124.16" y="391.7894"/><text fill="#000000" font-family="Verdana" font-size="14" lengthAdjust="spacing" textLength="71.6611" x="134.16" y="414.7845">Azure Doc</text><text fill="#000000" font-family="Verdana" font-size="14" lengthAdjust="spacing" textLength="81.457" x="134.16" y="431.0814">Intelligence</text><text fill="#000000" font-family="Verdana" font-size="14" lengthAdjust="spacing" textLength="98.7451" x="134.16" y="447.3782">OCR + Layout</text></g><!--entity step3--><g class="entity" data-qualified-name="3. PARSING.step3" data-source-line="22" id="ent0008"><rect fill="#FFFFFF" height="52.5938" rx="2.5" ry="2.5" style="stroke:#000000;stroke-width:1;" width="66.6006" x="279.23" y="560.6894"/><text fill="#000000" font-family="Verdana" font-size="14" lengthAdjust="spacing" textLength="46.6006" x="289.23" y="583.6845">Extrair</text><text fill="#000000" font-family="Verdana" font-size="14" lengthAdjust="spacing" textLength="36.4424" x="289.23" y="599.9814">texto</text></g><!--entity step4--><g class="entity" data-qualified-name="4. CHUNKING.step4" data-source-line="26" id="ent0010"><rect fill="#FFFFFF" height="68.8906" rx="2.5" ry="2.5" style="stroke:#000000;stroke-width:1;" width="98.1143" x="263.48" y="720.2494"/><text fill="#000000" font-family="Verdana" font-size="14" lengthAdjust="spacing" textLength="72.0781" x="273.48" y="743.2445">Dividir em</text><text fill="#000000" font-family="Verdana" font-size="14" lengthAdjust="spacing" textLength="71.668" x="273.48" y="759.5414">chunks de</text><text fill="#000000" font-family="Verdana" font-size="14" lengthAdjust="spacing" textLength="78.1143" x="273.48" y="775.8382">512 tokens</text></g><!--entity step5--><g class="entity" data-qualified-name="5. EMBEDDING.step5" data-source-line="30" id="ent0012"><rect fill="#FFFFFF" height="68.8906" rx="2.5" ry="2.5" style="stroke:#000000;stroke-width:1;" width="72.6162" x="380.23" y="889.1394"/><text fill="#000000" font-family="Verdana" font-size="14" lengthAdjust="spacing" textLength="39.5527" x="390.23" y="912.1345">Gerar</text><text fill="#000000" font-family="Verdana" font-size="14" lengthAdjust="spacing" textLength="52.6162" x="390.23" y="928.4314">vetores</text><text fill="#000000" font-family="Verdana" font-size="14" lengthAdjust="spacing" textLength="44.5156" x="390.23" y="944.7282">3072d</text></g><!--entity step6--><g class="entity" data-qualified-name="6. CLASSIFICATION.step6" data-source-line="34" id="ent0014"><rect fill="#FFFFFF" height="68.8906" rx="2.5" ry="2.5" style="stroke:#000000;stroke-width:1;" width="93.6504" x="489.71" y="1058.0294"/><text fill="#000000" font-family="Verdana" font-size="14" lengthAdjust="spacing" textLength="71.5723" x="499.71" y="1081.0245">Classificar</text><text fill="#000000" font-family="Verdana" font-size="14" lengthAdjust="spacing" textLength="56.4307" x="499.71" y="1097.3214">tipo doc</text><text fill="#000000" font-family="Verdana" font-size="14" lengthAdjust="spacing" textLength="73.6504" x="499.71" y="1113.6182">(ML Rules)</text></g><!--entity step7a--><g class="entity" data-qualified-name="7. INDEXING.step7a" data-source-line="38" id="ent0016"><rect fill="#FFFFFF" height="52.5938" rx="2.5" ry="2.5" style="stroke:#000000;stroke-width:1;" width="96.7197" x="375.17" y="1235.0694"/><text fill="#000000" font-family="Verdana" font-size="14" lengthAdjust="spacing" textLength="76.7197" x="385.17" y="1258.0645">Armazenar</text><text fill="#000000" font-family="Verdana" font-size="14" lengthAdjust="spacing" textLength="75.3047" x="385.17" y="1274.3614">em Qdrant</text></g><!--entity step7b--><g class="entity" data-qualified-name="8. METADATA.step7b" data-source-line="42" id="ent0018"><rect fill="#FFFFFF" height="68.8906" rx="2.5" ry="2.5" style="stroke:#000000;stroke-width:1;" width="100.7529" x="527.16" y="1226.9194"/><text fill="#000000" font-family="Verdana" font-size="14" lengthAdjust="spacing" textLength="43.9756" x="537.16" y="1249.9145">Salvar</text><text fill="#000000" font-family="Verdana" font-size="14" lengthAdjust="spacing" textLength="78.5313" x="537.16" y="1266.2114">metadados</text><text fill="#000000" font-family="Verdana" font-size="14" lengthAdjust="spacing" textLength="80.7529" x="537.16" y="1282.5082">PostgreSQL</text></g><g class="entity" data-qualified-name="GMN28" data-source-line="56" id="ent0029"><path d="M11,551.7194 L11,622.2506 A0,0 0 0 0 11,622.2506 L244.0688,622.2506 A0,0 0 0 0 244.0688,622.2506 L244.0688,561.7194 L234.0688,551.7194 L143.78,551.7194 L171.66,460.8994 L135.78,551.7194 L11,551.7194 A0,0 0 0 0 11,551.7194" fill="#FFFFFF" style="stroke:#000000;stroke-width:1;"/><path d="M234.0688,551.7194 L234.0688,561.7194 L244.0688,561.7194 L234.0688,551.7194" fill="#FFFFFF" style="stroke:#000000;stroke-width:1;"/><text fill="#000000" font-family="Verdana" font-size="13" font-weight="bold" lengthAdjust="spacing" textLength="212.0688" x="17" y="568.7863">Azure Document Intelligence</text><text fill="#000000" font-family="Verdana" font-size="13" lengthAdjust="spacing" textLength="168.7588" x="17" y="583.9191">- Detecta layout e tabelas</text><text fill="#000000" font-family="Verdana" font-size="13" lengthAdjust="spacing" textLength="160.9194" x="17" y="599.0519">- Alta precisao em PT-BR</text><text fill="#000000" font-family="Verdana" font-size="13" lengthAdjust="spacing" textLength="97.7793" x="17" y="614.1847">- ~R$ 800/mes</text></g><g class="entity" data-qualified-name="GMN31" data-source-line="63" id="ent0032"><path d="M183.88,888.3194 L183.88,958.8506 A0,0 0 0 0 183.88,958.8506 L345.1886,958.8506 A0,0 0 0 0 345.1886,958.8506 L345.1886,898.3194 L335.1886,888.3194 L278.48,888.3194 L302.82,789.4694 L270.48,888.3194 L183.88,888.3194 A0,0 0 0 0 183.88,888.3194" fill="#FFFFFF" style="stroke:#000000;stroke-width:1;"/><path d="M335.1886,888.3194 L335.1886,898.3194 L345.1886,898.3194 L335.1886,888.3194" fill="#FFFFFF" style="stroke:#000000;stroke-width:1;"/><text fill="#000000" font-family="Verdana" font-size="13" font-weight="bold" lengthAdjust="spacing" textLength="137.0649" x="189.88" y="905.3863">Chunking Strategy</text><text fill="#000000" font-family="Verdana" font-size="13" lengthAdjust="spacing" textLength="125.1313" x="189.88" y="920.5191">- 512 tokens/chunk</text><text fill="#000000" font-family="Verdana" font-size="13" lengthAdjust="spacing" textLength="126.0391" x="189.88" y="935.6519">- 50 tokens overlap</text><text fill="#000000" font-family="Verdana" font-size="13" lengthAdjust="spacing" textLength="140.3086" x="189.88" y="950.7847">- Preserva paragrafos</text></g><g class="entity" data-qualified-name="GMN34" data-source-line="70" id="ent0035"><path d="M270.16,1057.2094 L270.16,1127.7406 A0,0 0 0 0 270.16,1127.7406 L454.9041,1127.7406 A0,0 0 0 0 454.9041,1127.7406 L454.9041,1067.2094 L444.9041,1057.2094 L377.72,1057.2094 L405.61,958.3594 L369.72,1057.2094 L270.16,1057.2094 A0,0 0 0 0 270.16,1057.2094" fill="#FFFFFF" style="stroke:#000000;stroke-width:1;"/><path d="M444.9041,1057.2094 L444.9041,1067.2094 L454.9041,1067.2094 L444.9041,1057.2094" fill="#FFFFFF" style="stroke:#000000;stroke-width:1;"/><text fill="#000000" font-family="Verdana" font-size="13" font-weight="bold" lengthAdjust="spacing" textLength="131.1489" x="276.16" y="1074.2763">Embedding Model</text><text fill="#000000" font-family="Verdana" font-size="13" lengthAdjust="spacing" textLength="163.7441" x="276.16" y="1089.4091">- text-embedding-3-large</text><text fill="#000000" font-family="Verdana" font-size="13" lengthAdjust="spacing" textLength="116.3018" x="276.16" y="1104.5419">- 3072 dimensoes</text><text fill="#000000" font-family="Verdana" font-size="13" lengthAdjust="spacing" textLength="80.9707" x="276.16" y="1119.6747">- OpenAI API</text></g><!--link step1 to step2--><g class="link" data-entity-1="ent0003" data-entity-2="ent0005" data-link-type="dependency" data-source-line="45" id="lnk19"><path d="M186.53,162.4494 C186.53,190.1394 186.53,228.0794 186.53,255.8294" fill="none" id="step1-to-step2" style="stroke:#000000;stroke-width:1;"/><polygon fill="#000000" points="186.53,261.8294,190.53,252.8294,186.53,256.8294,182.53,252.8294,186.53,261.8294" style="stroke:#000000;stroke-width:1;"/></g><!--link step2 to step2a--><g class="link" data-entity-1="ent0005" data-entity-2="ent0006" data-link-type="dependency" data-source-line="46" id="lnk20"><path d="M185.97,315.0294 C185.49,336.6094 184.9444,361.7009 184.4144,385.3609" fill="none" id="step2-to-step2a" style="stroke:#000000;stroke-width:1;"/><polygon fill="#000000" points="184.28,391.3594,188.4806,382.4512,184.392,386.3606,180.4826,382.2721,184.28,391.3594" style="stroke:#000000;stroke-width:1;"/><text fill="#000000" font-family="Verdana" font-size="13" lengthAdjust="spacing" textLength="24.5273" x="186.53" y="357.8563">Sim</text></g><!--link step2 to step3--><g class="link" data-entity-1="ent0005" data-entity-2="ent0008" data-link-type="dependency" data-source-line="47" id="lnk21"><path d="M209.19,315.1494 C225.56,334.8894 247.07,363.4894 260.53,391.7894 C287.67,448.8394 301.4494,516.37 307.7694,554.52" fill="none" id="step2-to-step3" style="stroke:#000000;stroke-width:1;"/><polygon fill="#000000" points="308.75,560.4394,311.2253,550.9066,307.9328,555.5066,303.3329,552.2141,308.75,560.4394" style="stroke:#000000;stroke-width:1;"/><text fill="#000000" font-family="Verdana" font-size="13" lengthAdjust="spacing" textLength="25.6445" x="294.53" y="430.8063">Nao</text></g><!--link step2a to step3--><g class="link" data-entity-1="ent0006" data-entity-2="ent0008" data-link-type="dependency" data-source-line="48" id="lnk22"><path d="M222.87,460.9594 C235.93,473.1194 250.05,487.3794 261.53,501.6894 C276.31,520.0894 287.1101,537.8803 296.5601,555.2303" fill="none" id="step2a-to-step3" style="stroke:#000000;stroke-width:1;"/><polygon fill="#000000" points="299.43,560.4994,298.6379,550.6824,297.0384,556.1084,291.6124,554.509,299.43,560.4994" style="stroke:#000000;stroke-width:1;"/></g><!--link step3 to step4--><g class="link" data-entity-1="ent0008" data-entity-2="ent0010" data-link-type="dependency" data-source-line="49" id="lnk23"><path d="M312.53,613.5094 C312.53,642.0194 312.53,682.2794 312.53,713.7994" fill="none" id="step3-to-step4" style="stroke:#000000;stroke-width:1;"/><polygon fill="#000000" points="312.53,719.7994,316.53,710.7994,312.53,714.7994,308.53,710.7994,312.53,719.7994" style="stroke:#000000;stroke-width:1;"/></g><!--link step4 to step5--><g class="link" data-entity-1="ent0010" data-entity-2="ent0012" data-link-type="dependency" data-source-line="50" id="lnk24"><path d="M335.89,789.4894 C344.45,802.1294 354.1,816.6794 362.53,830.1394 C374.58,849.3494 384.4233,866.0455 394.5533,883.6955" fill="none" id="step4-to-step5" style="stroke:#000000;stroke-width:1;"/><polygon fill="#000000" points="397.54,888.8994,396.5292,879.1025,395.0511,884.5629,389.5908,883.0848,397.54,888.8994" style="stroke:#000000;stroke-width:1;"/></g><!--link step5 to step6--><g class="link" data-entity-1="ent0012" data-entity-2="ent0014" data-link-type="dependency" data-source-line="51" id="lnk25"><path d="M442.47,958.4694 C452.03,971.1194 462.88,985.6494 472.53,999.0294 C486.47,1018.3394 498.2699,1035.2889 510.3499,1052.9289" fill="none" id="step5-to-step6" style="stroke:#000000;stroke-width:1;"/><polygon fill="#000000" points="513.74,1057.8794,511.9551,1048.1936,510.9149,1053.754,505.3545,1052.7138,513.74,1057.8794" style="stroke:#000000;stroke-width:1;"/></g><!--link step6 to step7a--><g class="link" data-entity-1="ent0014" data-entity-2="ent0016" data-link-type="dependency" data-source-line="52" id="lnk26"><path d="M513.67,1127.2494 C492.13,1159.0594 463.6931,1201.0405 444.1931,1229.8505" fill="none" id="step6-to-step7a" style="stroke:#000000;stroke-width:1;"/><polygon fill="#000000" points="440.83,1234.8194,449.1873,1229.6082,443.6326,1230.6787,442.5622,1225.124,440.83,1234.8194" style="stroke:#000000;stroke-width:1;"/></g><!--link step6 to step7b--><g class="link" data-entity-1="ent0014" data-entity-2="ent0018" data-link-type="dependency" data-source-line="53" id="lnk27"><path d="M544.83,1127.2494 C551.94,1156.1994 560.7085,1191.8726 567.8185,1220.8126" fill="none" id="step6-to-step7b" style="stroke:#000000;stroke-width:1;"/><polygon fill="#000000" points="569.25,1226.6394,570.9872,1216.9449,568.0571,1221.7838,563.2182,1218.8536,569.25,1226.6394" style="stroke:#000000;stroke-width:1;"/></g><g class="footer" data-source-line="76"><text fill="#000000" font-family="Verdana" font-size="10" lengthAdjust="spacing" textLength="262.4902" x="189.0199" y="1331.0916">JurisFinder LEAN - Fluxo de Indexacao | Janeiro 2026</text></g><?plantuml-src XLNRSjem47ttLspJFZJf60Ytf9rCEWwsKwT02D1f7tWHziRHH9OOIL2INhwzaZ5sniaqFC3iXNFEhdQbD_eECuGL8vGxZgQQ8OHilHNWeoRiZYG24eI9534gHJBaMe0B4KzmIs8Y74VTKxuYacGWCTQ4fmRXbmFcSq7Y-rIADKy6WWbvTXPByfETdyFRe1EsG__b915BcnA6OITelPoosgd9aKx3Nl3nvJIbXSGSgnFqmfxpnt4gYGV73HXClU_3Q7nv09MsdVGdUQOFrf0BpiL6g2PX6gLfYpe0ea1fN1tNaDiDk1vCuRr2u9YtJL9nQ4bsjJsZcFXXCyf8Yjc2eue9HuF_kSHlr_EznxL4y4Myu17No1XDaSUuu9Rs0mp9WrZhwk-afg_JW8atdHM5LyryfYlOQacegLpZLeiIi5F3wvfEVlas_lewe4ytDA4IRA7ntPhVApDS2zuxReCMzyYhddPh7Bq61AEBmFTV9xaqnsCqRz0UlrhmJkkadPJ0zJ7e6_53RpQBmcZWpQFhyIle0qQKehSqjXoQhinws7DuFnh2TCrG7PPC_HhJIGEYiH_yA2hOJ-Sp1azcv16vnSSCRX99U7MO9_N3F6t0A9XxlZVt_eiw8snZ8JEpreaTtmMV2ALJYREROGM_jF3vK8FhdXVZbtzNDe5F1ezc1xL0n_h7H1H-KWMSNNXlTtExMzgztEwLTZ-t-wLjYguvbex3XKPO2gr51k9sF-a0HqVbUgpjTGLFL-Jeo6IuKEmqi7nJ046J9Pg3pOCUCv6LQHrLH9XHXSdSlPZceR_JTt3QQZKpL0xo1Ao65vLqSo43E-AKfp0pUwGnVIZegtblvbkmSxOA7uWDIaPMkNTYHXZbnWWoLsmgoQruXRcNCmVP4fF4Kez4WgpWjMliuZxaTbn6P8fvo2u99DGqJ0dSzU5wXToBm9j4JnXlXVcHSBMML8NKl08IXe4tDkcxLyEy5UNR0B_XojnbL0fejzhzVm00?></g></svg>