<?plantuml 1.2026.1beta5?><svg xmlns="http://www.w3.org/2000/svg" xmlns:xlink="http://www.w3.org/1999/xlink" contentStyleType="text/css" data-diagram-type="ACTIVITY" height="1151px" preserveAspectRatio="none" style="width:1825px;height:1151px;background:#FFFFFF;" version="1.1" viewBox="0 0 1825 1151" width="1825px" zoomAndPan="magnify"><title>Pipeline RAG - Busca (com ML Rules)</title><defs/><g><g class="title" data-source-line="3"><text fill="#000000" font-family="Verdana" font-size="22" font-weight="bold" lengthAdjust="spacing" textLength="455.7803" x="683.5964" y="35.4209">Pipeline RAG - Busca (com ML Rules)</text></g><rect fill="#FFFFFF" height="20.9531" style="stroke:#FFFFFF;stroke-width:1;" width="1802.9731" x="10" y="54.3545"/><ellipse cx="141.3623" cy="90.3076" fill="#FFFFFF" rx="10" ry="10" style="stroke:#000000;stroke-width:1;"/><rect fill="#FFFFFF" height="47.9375" rx="12.5" ry="12.5" style="stroke:#000000;stroke-width:1;" width="250.7246" x="16" y="120.3076"/><text fill="#000000" font-family="Verdana" font-size="12" lengthAdjust="spacing" textLength="173.4141" x="26" y="141.4463">Query em linguagem natural</text><text fill="#000000" font-family="Verdana" font-size="12" lengthAdjust="spacing" textLength="230.7246" x="26" y="155.415">"docs EPI funcionario Joao 2020-2023"</text><rect fill="#FFFFFF" height="47.9375" rx="12.5" ry="12.5" style="stroke:#000000;stroke-width:1;" width="144.5996" x="69.0625" y="1032.21"/><text fill="#000000" font-family="Verdana" font-size="12" lengthAdjust="spacing" textLength="124.5996" x="79.0625" y="1053.3486">Visualizar resultados</text><text fill="#000000" font-family="Verdana" font-size="12" lengthAdjust="spacing" textLength="52.5117" x="79.0625" y="1067.3174">e alertas</text><ellipse cx="141.3623" cy="1111.1475" fill="none" rx="11" ry="11" style="stroke:#000000;stroke-width:1;"/><ellipse cx="141.3623" cy="1111.1475" fill="#FFFFFF" rx="6" ry="6" style="stroke:#000000;stroke-width:1;"/><line style="stroke:#000000;stroke-width:1;" x1="10" x2="10" y1="54.3545" y2="1122.1475"/><rect fill="#FFFFFF" height="75.875" rx="12.5" ry="12.5" style="stroke:#000000;stroke-width:1;" width="146.5977" x="276.7246" y="188.2451"/><text fill="#000000" font-family="Verdana" font-size="12" lengthAdjust="spacing" textLength="103.0078" x="286.7246" y="209.3838">Extrair entidades</text><text fill="#000000" font-family="Verdana" font-size="12" lengthAdjust="spacing" textLength="76.9688" x="286.7246" y="223.3525">- Nome: Joao</text><text fill="#000000" font-family="Verdana" font-size="12" lengthAdjust="spacing" textLength="59.9824" x="286.7246" y="237.3213">- Tipo: EPI</text><text fill="#000000" font-family="Verdana" font-size="12" lengthAdjust="spacing" textLength="126.5977" x="286.7246" y="251.29">- Periodo: 2020-2023</text><line style="stroke:#000000;stroke-width:1;" x1="270.7246" x2="270.7246" y1="54.3545" y2="1122.1475"/><rect fill="#FFFFFF" height="47.9375" rx="12.5" ry="12.5" style="stroke:#000000;stroke-width:1;" width="125.5801" x="433.3223" y="284.1201"/><text fill="#000000" font-family="Verdana" font-size="12" lengthAdjust="spacing" textLength="105.5801" x="443.3223" y="305.2588">Gerar embedding</text><text fill="#000000" font-family="Verdana" font-size="12" lengthAdjust="spacing" textLength="53.4258" x="443.3223" y="319.2275">da query</text><line style="stroke:#000000;stroke-width:1;" x1="427.3223" x2="427.3223" y1="54.3545" y2="1122.1475"/><rect fill="#000000" height="6" rx="2.5" ry="2.5" style="stroke:#000000;stroke-width:1;" width="358.6895" x="568.9023" y="352.0576"/><rect fill="#FFFFFF" height="47.9375" rx="12.5" ry="12.5" style="stroke:#000000;stroke-width:1;" width="145.2559" x="580.9023" y="378.0576"/><text fill="#000000" font-family="Verdana" font-size="12" lengthAdjust="spacing" textLength="86.4492" x="590.9023" y="399.1963">Busca Vetorial</text><text fill="#000000" font-family="Verdana" font-size="12" lengthAdjust="spacing" textLength="125.2559" x="590.9023" y="413.165">(Qdrant - semantica)</text><rect fill="#FFFFFF" height="47.9375" rx="12.5" ry="12.5" style="stroke:#000000;stroke-width:1;" width="161.4336" x="754.1582" y="378.0576"/><text fill="#000000" font-family="Verdana" font-size="12" lengthAdjust="spacing" textLength="91.916" x="764.1582" y="399.1963">Busca Keyword</text><text fill="#000000" font-family="Verdana" font-size="12" lengthAdjust="spacing" textLength="141.4336" x="764.1582" y="413.165">(BM25 - termos exatos)</text><rect fill="#000000" height="6" rx="2.5" ry="2.5" style="stroke:#000000;stroke-width:1;" width="358.6895" x="568.9023" y="445.9951"/><rect fill="#FFFFFF" height="47.9375" rx="12.5" ry="12.5" style="stroke:#000000;stroke-width:1;" width="169.1094" x="663.6924" y="471.9951"/><text fill="#000000" font-family="Verdana" font-size="12" lengthAdjust="spacing" textLength="66.4336" x="673.6924" y="493.1338">Fusion RRF</text><text fill="#000000" font-family="Verdana" font-size="12" lengthAdjust="spacing" textLength="149.1094" x="673.6924" y="507.1025">(Reciprocal Rank Fusion)</text><line style="stroke:#000000;stroke-width:1;" x1="562.9023" x2="562.9023" y1="54.3545" y2="1122.1475"/><rect fill="#FFFFFF" height="61.9063" rx="12.5" ry="12.5" style="stroke:#000000;stroke-width:1;" width="155.4512" x="937.5918" y="539.9326"/><text fill="#000000" font-family="Verdana" font-size="12" lengthAdjust="spacing" textLength="59.2031" x="947.5918" y="561.0713">Filtrar por</text><text fill="#000000" font-family="Verdana" font-size="12" lengthAdjust="spacing" textLength="135.4512" x="947.5918" y="575.04">permissoes do usuario</text><text fill="#000000" font-family="Verdana" font-size="12" lengthAdjust="spacing" textLength="72.6738" x="947.5918" y="589.0088">(ACL do AD)</text><line style="stroke:#000000;stroke-width:1;" x1="931.5918" x2="931.5918" y1="54.3545" y2="1122.1475"/><rect fill="#FFFFFF" height="61.9063" rx="12.5" ry="12.5" style="stroke:#000000;stroke-width:1;" width="137.3164" x="1103.043" y="621.8389"/><text fill="#000000" font-family="Verdana" font-size="12" lengthAdjust="spacing" textLength="86.3496" x="1113.043" y="642.9775">Cross-encoder</text><text fill="#000000" font-family="Verdana" font-size="12" lengthAdjust="spacing" textLength="94.2422" x="1113.043" y="656.9463">reordenar top-k</text><text fill="#000000" font-family="Verdana" font-size="12" lengthAdjust="spacing" textLength="117.3164" x="1113.043" y="670.915">(Cohere Rerank v3)</text><line style="stroke:#000000;stroke-width:1;" x1="1097.043" x2="1097.043" y1="54.3545" y2="1122.1475"/><path d="M1418.9053,699.4326 L1418.9053,730.6982 L1398.9053,734.6982 L1418.9053,738.6982 L1418.9053,769.9639 A0,0 0 0 0 1418.9053,769.9639 L1646.0518,769.9639 A0,0 0 0 0 1646.0518,769.9639 L1646.0518,709.4326 L1636.0518,699.4326 L1418.9053,699.4326 A0,0 0 0 0 1418.9053,699.4326" fill="#E5F4E3" style="stroke:#28A745;stroke-width:1;"/><path d="M1636.0518,699.4326 L1636.0518,709.4326 L1646.0518,709.4326 L1636.0518,699.4326" fill="#E5F4E3" style="stroke:#28A745;stroke-width:1;"/><text fill="#000000" font-family="Verdana" font-size="13" font-weight="bold" lengthAdjust="spacing" textLength="155.7524" x="1424.9053" y="716.4995">Regras por Processo:</text><text fill="#000000" font-family="Verdana" font-size="13" lengthAdjust="spacing" textLength="206.1465" x="1424.9053" y="731.6323">- Acidente: ASO, CAT, EPI, PPRA</text><text fill="#000000" font-family="Verdana" font-size="13" lengthAdjust="spacing" textLength="196.8408" x="1424.9053" y="746.7651">- Rescisao: Contrato, Rescisao</text><text fill="#000000" font-family="Verdana" font-size="13" lengthAdjust="spacing" textLength="191.2612" x="1424.9053" y="761.8979">- Horas Extras: Ponto, Acordo</text><rect fill="#FFFFFF" height="61.9063" rx="12.5" ry="12.5" style="stroke:#000000;stroke-width:1;" width="148.2559" x="1250.6494" y="703.7451"/><text fill="#000000" font-family="Verdana" font-size="12" lengthAdjust="spacing" textLength="128.2559" x="1260.6494" y="724.8838">Verificar documentos</text><text fill="#000000" font-family="Verdana" font-size="12" lengthAdjust="spacing" textLength="95.8125" x="1260.6494" y="738.8525">obrigatorios por</text><text fill="#000000" font-family="Verdana" font-size="12" lengthAdjust="spacing" textLength="99.3457" x="1260.6494" y="752.8213">tipo de processo</text><rect fill="#FFFFFF" height="61.9063" rx="12.5" ry="12.5" style="stroke:#000000;stroke-width:1;" width="148.8359" x="1250.3594" y="838.3662"/><text fill="#000000" font-family="Verdana" font-size="12" lengthAdjust="spacing" textLength="79.0313" x="1260.3594" y="859.5049">Gerar alertas</text><text fill="#000000" font-family="Verdana" font-size="12" lengthAdjust="spacing" textLength="92.9531" x="1260.3594" y="873.4736">de documentos</text><text fill="#000000" font-family="Verdana" font-size="12" lengthAdjust="spacing" textLength="128.8359" x="1260.3594" y="887.4424">obrigatorios faltantes</text><polygon fill="#FFFFFF" points="1282.3672,789.9639,1367.1875,789.9639,1379.1875,801.9639,1367.1875,813.9639,1282.3672,813.9639,1270.3672,801.9639,1282.3672,789.9639" style="stroke:#000000;stroke-width:1;"/><text fill="#000000" font-family="Verdana" font-size="11" lengthAdjust="spacing" textLength="20.7539" x="1328.7773" y="824.1743">Sim</text><text fill="#000000" font-family="Verdana" font-size="11" lengthAdjust="spacing" textLength="84.8203" x="1282.3672" y="805.772">Docs faltantes?</text><text fill="#000000" font-family="Verdana" font-size="11" lengthAdjust="spacing" textLength="21.6992" x="1379.1875" y="799.3696">Nao</text><polygon fill="#FFFFFF" points="1324.7773,920.2725,1336.7773,932.2725,1324.7773,944.2725,1312.7773,932.2725,1324.7773,920.2725" style="stroke:#000000;stroke-width:1;"/><line style="stroke:#000000;stroke-width:1;" x1="1244.3594" x2="1244.3594" y1="54.3545" y2="1122.1475"/><rect fill="#FFFFFF" height="47.9375" rx="12.5" ry="12.5" style="stroke:#000000;stroke-width:1;" width="150.0605" x="1657.0518" y="964.2725"/><text fill="#000000" font-family="Verdana" font-size="12" lengthAdjust="spacing" textLength="119.1855" x="1667.0518" y="985.4111">Retornar resultados</text><text fill="#000000" font-family="Verdana" font-size="12" lengthAdjust="spacing" textLength="130.0605" x="1667.0518" y="999.3799">ranqueados + alertas</text><line style="stroke:#000000;stroke-width:1;" x1="1651.0518" x2="1651.0518" y1="54.3545" y2="1122.1475"/><line style="stroke:#000000;stroke-width:1;" x1="1811.1123" x2="1811.1123" y1="54.3545" y2="1122.1475"/><line style="stroke:#000000;stroke-width:1;" x1="141.3623" x2="141.3623" y1="100.3076" y2="120.3076"/><polygon fill="#000000" points="137.3623,110.3076,141.3623,120.3076,145.3623,110.3076,141.3623,114.3076" style="stroke:#000000;stroke-width:1;"/><line style="stroke:#000000;stroke-width:1;" x1="141.3623" x2="141.3623" y1="1080.1475" y2="1100.1475"/><polygon fill="#000000" points="137.3623,1090.1475,141.3623,1100.1475,145.3623,1090.1475,141.3623,1094.1475" style="stroke:#000000;stroke-width:1;"/><line style="stroke:#000000;stroke-width:1;" x1="653.5303" x2="653.5303" y1="358.0576" y2="378.0576"/><polygon fill="#000000" points="649.5303,368.0576,653.5303,378.0576,657.5303,368.0576,653.5303,372.0576" style="stroke:#000000;stroke-width:1;"/><line style="stroke:#000000;stroke-width:1;" x1="834.875" x2="834.875" y1="358.0576" y2="378.0576"/><polygon fill="#000000" points="830.875,368.0576,834.875,378.0576,838.875,368.0576,834.875,372.0576" style="stroke:#000000;stroke-width:1;"/><line style="stroke:#000000;stroke-width:1;" x1="653.5303" x2="653.5303" y1="425.9951" y2="445.9951"/><polygon fill="#000000" points="649.5303,435.9951,653.5303,445.9951,657.5303,435.9951,653.5303,439.9951" style="stroke:#000000;stroke-width:1;"/><line style="stroke:#000000;stroke-width:1;" x1="834.875" x2="834.875" y1="425.9951" y2="445.9951"/><polygon fill="#000000" points="830.875,435.9951,834.875,445.9951,838.875,435.9951,834.875,439.9951" style="stroke:#000000;stroke-width:1;"/><line style="stroke:#000000;stroke-width:1;" x1="748.2471" x2="748.2471" y1="451.9951" y2="471.9951"/><polygon fill="#000000" points="744.2471,461.9951,748.2471,471.9951,752.2471,461.9951,748.2471,465.9951" style="stroke:#000000;stroke-width:1;"/><line style="stroke:#000000;stroke-width:1;" x1="1324.7773" x2="1324.7773" y1="813.9639" y2="838.3662"/><polygon fill="#000000" points="1320.7773,828.3662,1324.7773,838.3662,1328.7773,828.3662,1324.7773,832.3662" style="stroke:#000000;stroke-width:1;"/><line style="stroke:#000000;stroke-width:1;" x1="1379.1875" x2="1409.1953" y1="801.9639" y2="801.9639"/><polygon fill="#000000" points="1405.1953,859.3193,1409.1953,869.3193,1413.1953,859.3193,1409.1953,863.3193" style="stroke:#000000;stroke-width:1;"/><line style="stroke:#000000;stroke-width:1;" x1="1409.1953" x2="1409.1953" y1="801.9639" y2="932.2725"/><line style="stroke:#000000;stroke-width:1;" x1="1409.1953" x2="1336.7773" y1="932.2725" y2="932.2725"/><polygon fill="#000000" points="1346.7773,928.2725,1336.7773,932.2725,1346.7773,936.2725,1342.7773,932.2725" style="stroke:#000000;stroke-width:1;"/><line style="stroke:#000000;stroke-width:1;" x1="1324.7773" x2="1324.7773" y1="900.2725" y2="920.2725"/><polygon fill="#000000" points="1320.7773,910.2725,1324.7773,920.2725,1328.7773,910.2725,1324.7773,914.2725" style="stroke:#000000;stroke-width:1;"/><line style="stroke:#000000;stroke-width:1;" x1="1324.7773" x2="1324.7773" y1="765.6514" y2="789.9639"/><polygon fill="#000000" points="1320.7773,779.9639,1324.7773,789.9639,1328.7773,779.9639,1324.7773,783.9639" style="stroke:#000000;stroke-width:1;"/><line style="stroke:#000000;stroke-width:1;" x1="141.3623" x2="141.3623" y1="168.2451" y2="173.2451"/><line style="stroke:#000000;stroke-width:1;" x1="141.3623" x2="350.0234" y1="173.2451" y2="173.2451"/><line style="stroke:#000000;stroke-width:1;" x1="350.0234" x2="350.0234" y1="173.2451" y2="188.2451"/><polygon fill="#000000" points="346.0234,178.2451,350.0234,188.2451,354.0234,178.2451,350.0234,182.2451" style="stroke:#000000;stroke-width:1;"/><line style="stroke:#000000;stroke-width:1;" x1="350.0234" x2="350.0234" y1="264.1201" y2="269.1201"/><line style="stroke:#000000;stroke-width:1;" x1="350.0234" x2="496.1123" y1="269.1201" y2="269.1201"/><line style="stroke:#000000;stroke-width:1;" x1="496.1123" x2="496.1123" y1="269.1201" y2="284.1201"/><polygon fill="#000000" points="492.1123,274.1201,496.1123,284.1201,500.1123,274.1201,496.1123,278.1201" style="stroke:#000000;stroke-width:1;"/><line style="stroke:#000000;stroke-width:1;" x1="496.1123" x2="496.1123" y1="332.0576" y2="337.0576"/><line style="stroke:#000000;stroke-width:1;" x1="496.1123" x2="748.2471" y1="337.0576" y2="337.0576"/><line style="stroke:#000000;stroke-width:1;" x1="748.2471" x2="748.2471" y1="337.0576" y2="352.0576"/><polygon fill="#000000" points="744.2471,342.0576,748.2471,352.0576,752.2471,342.0576,748.2471,346.0576" style="stroke:#000000;stroke-width:1;"/><line style="stroke:#000000;stroke-width:1;" x1="748.2471" x2="748.2471" y1="519.9326" y2="524.9326"/><line style="stroke:#000000;stroke-width:1;" x1="748.2471" x2="1015.3174" y1="524.9326" y2="524.9326"/><line style="stroke:#000000;stroke-width:1;" x1="1015.3174" x2="1015.3174" y1="524.9326" y2="539.9326"/><polygon fill="#000000" points="1011.3174,529.9326,1015.3174,539.9326,1019.3174,529.9326,1015.3174,533.9326" style="stroke:#000000;stroke-width:1;"/><line style="stroke:#000000;stroke-width:1;" x1="1015.3174" x2="1015.3174" y1="601.8389" y2="606.8389"/><line style="stroke:#000000;stroke-width:1;" x1="1015.3174" x2="1171.7012" y1="606.8389" y2="606.8389"/><line style="stroke:#000000;stroke-width:1;" x1="1171.7012" x2="1171.7012" y1="606.8389" y2="621.8389"/><polygon fill="#000000" points="1167.7012,611.8389,1171.7012,621.8389,1175.7012,611.8389,1171.7012,615.8389" style="stroke:#000000;stroke-width:1;"/><line style="stroke:#000000;stroke-width:1;" x1="1171.7012" x2="1171.7012" y1="683.7451" y2="688.7451"/><line style="stroke:#000000;stroke-width:1;" x1="1171.7012" x2="1324.7773" y1="688.7451" y2="688.7451"/><line style="stroke:#000000;stroke-width:1;" x1="1324.7773" x2="1324.7773" y1="688.7451" y2="703.7451"/><polygon fill="#000000" points="1320.7773,693.7451,1324.7773,703.7451,1328.7773,693.7451,1324.7773,697.7451" style="stroke:#000000;stroke-width:1;"/><line style="stroke:#000000;stroke-width:1;" x1="1324.7773" x2="1324.7773" y1="944.2725" y2="949.2725"/><line style="stroke:#000000;stroke-width:1;" x1="1324.7773" x2="1732.082" y1="949.2725" y2="949.2725"/><line style="stroke:#000000;stroke-width:1;" x1="1732.082" x2="1732.082" y1="949.2725" y2="964.2725"/><polygon fill="#000000" points="1728.082,954.2725,1732.082,964.2725,1736.082,954.2725,1732.082,958.2725" style="stroke:#000000;stroke-width:1;"/><line style="stroke:#000000;stroke-width:1;" x1="1732.082" x2="1732.082" y1="1012.21" y2="1017.21"/><line style="stroke:#000000;stroke-width:1;" x1="1732.082" x2="141.3623" y1="1017.21" y2="1017.21"/><line style="stroke:#000000;stroke-width:1;" x1="141.3623" x2="141.3623" y1="1017.21" y2="1032.21"/><polygon fill="#000000" points="137.3623,1022.21,141.3623,1032.21,145.3623,1022.21,141.3623,1026.21" style="stroke:#000000;stroke-width:1;"/><text fill="#000000" font-family="Verdana" font-size="18" lengthAdjust="spacing" textLength="68.4053" x="106.1597" y="71.0625">Usuario</text><text fill="#000000" font-family="Verdana" font-size="18" lengthAdjust="spacing" textLength="117.5625" x="290.2422" y="71.0625">Query Parser</text><text fill="#000000" font-family="Verdana" font-size="18" lengthAdjust="spacing" textLength="102.0938" x="444.0654" y="71.0625">Embedding</text><text fill="#000000" font-family="Verdana" font-size="18" lengthAdjust="spacing" textLength="127.3975" x="683.5483" y="71.0625">Hybrid Search</text><text fill="#000000" font-family="Verdana" font-size="18" lengthAdjust="spacing" textLength="133.1191" x="947.7578" y="71.0625">Access Control</text><text fill="#000000" font-family="Verdana" font-size="18" lengthAdjust="spacing" textLength="82.3184" x="1129.542" y="71.0625">Reranker</text><text fill="#000000" font-family="Verdana" font-size="18" lengthAdjust="spacing" textLength="148.0605" x="1373.6753" y="71.0625">ML Rules Engine</text><text fill="#000000" font-family="Verdana" font-size="18" lengthAdjust="spacing" textLength="87.2578" x="1687.4531" y="71.0625">Response</text><g class="footer" data-source-line="61"><text fill="#000000" font-family="Verdana" font-size="10" lengthAdjust="spacing" textLength="253.3984" x="784.7874" y="1136.4297">JurisFinder LEAN - Pipeline de Busca | Janeiro 2026</text></g><?plantuml-src TLHBSnCv4BxFhsZOYntYgbGUa9eSg8bZ0zaGp0HoyaLesexAC-hPbcQNBEQ_yqacgHGKFhZqwFwaxw5v5k-uO-fRutnHH1TRfeNhkNMUgQxUq8JEXs0DZQnqzFwAwg7bC2wAi76-DsewKhRH-3KQlnM4txcncxNAu9kfjABqr-nqVZo_sEs9Dgm_rmyENfrU71VVdu9vYN_6EPaVpuv-npayhLuTdoISxUSm67MoBK8q6elouy1wJzmH-Am7iyR8cpYeQPV-UICsq6pnZbQ3jqvywgHBCKA71uS74_mTFJy3w0vaOJImRejozZMgSKhiesjCms7f9tGj7PUvESq-kLxA19qc2mPkW_aZQWATTL-uQN0h8BvXDS1xM5dwnj0_wT1K-FR-Yxg6RjYelTiMAz5Dbg3S-NBBKTGbFgEFZHeVuLZW3WDdpVWirvDP9tkVTFtDz_z1GZITlpyyGKjaxIGGVpLH0jhODvIFAkT3W3PKrtDKrsnThs9DIxNn6zfjZjCzAsiv19gAZoejMCrT6nElNdJfU-2x48G3DKB3pYO0LjEhj51TP8mQGlXDLdcg4iA4lHKOlVJAoN5OH57woGQTKxbZHKPp2_rxb04U0aeplqQ2WNCBzLUGGd6C7JgO9Z1CeEdQ9EL0EbymmZ9gy1B03ZpahCXHHDbTX79xUpMlrUHYMloiAVVsi3MXoZhSBI80rSs7VPfMd_QJ-VkqMDHLhgWvM1SCGf3rmSdxZskvuAqay1ojKD82HQYeB4XBzY9TfYZSYaONARKhq-BDHGwlnuGNx6bquxhnpk5TcapB6WseWjCVcJ_2mF0sC8skZOpJUMwLtGYz-91Kh5FAalhAOK1Faw0WF5AQnlJYuRopfu-ml7KOjkx_NnhvINM0dmLI2dvAbuEwC7UuizBLhBg6C8yV8_3OPNTBbyQpq_nCN_u0?></g></svg>