<?plantuml 1.2026.1beta5?><svg xmlns="http://www.w3.org/2000/svg" xmlns:xlink="http://www.w3.org/1999/xlink" contentStyleType="text/css" data-diagram-type="ACTIVITY" height="881px" preserveAspectRatio="none" style="width:2390px;height:881px;background:#FFFFFF;" version="1.1" viewBox="0 0 2390 881" width="2390px" zoomAndPan="magnify"><title>Pipeline RAG - Indexacao (com OCR)</title><defs/><g><g class="title" data-source-line="3"><text fill="#000000" font-family="Verdana" font-size="22" font-weight="bold" lengthAdjust="spacing" textLength="448.9805" x="969.3792" y="35.4209">Pipeline RAG - Indexacao (com OCR)</text></g><rect fill="#FFFFFF" height="20.9531" style="stroke:#FFFFFF;stroke-width:1;" width="2367.7388" x="10" y="54.3545"/><ellipse cx="94.3145" cy="90.3076" fill="#FFFFFF" rx="10" ry="10" style="stroke:#000000;stroke-width:1;"/><rect fill="#F5F5F5" height="47.9375" rx="12.5" ry="12.5" style="stroke:#333333;stroke-width:1;" width="156.6289" x="16" y="120.3076"/><text fill="#000000" font-family="Verdana" font-size="12" lengthAdjust="spacing" textLength="69.5098" x="26" y="141.4463">Documento</text><text fill="#000000" font-family="Verdana" font-size="12" lengthAdjust="spacing" textLength="136.6289" x="26" y="155.415">(PDF, DOCX, XLS, IMG)</text><line style="stroke:#000000;stroke-width:1;" x1="10" x2="10" y1="54.3545" y2="851.4404"/><rect fill="#F5F5F5" height="47.9375" rx="12.5" ry="12.5" style="stroke:#333333;stroke-width:1;" width="172.0742" x="182.6289" y="188.2451"/><text fill="#000000" font-family="Verdana" font-size="12" lengthAdjust="spacing" textLength="152.0742" x="192.6289" y="209.3838">Detectar novos/alterados</text><text fill="#000000" font-family="Verdana" font-size="12" lengthAdjust="spacing" textLength="112.6582" x="192.6289" y="223.3525">(incremental sync)</text><line style="stroke:#000000;stroke-width:1;" x1="176.6289" x2="176.6289" y1="54.3545" y2="851.4404"/><polygon fill="#F5F5F5" points="396.457,256.1826,480.8638,256.1826,492.8638,268.9873,480.8638,281.792,396.457,281.792,384.457,268.9873,396.457,256.1826" style="stroke:#333333;stroke-width:1;"/><text fill="#000000" font-family="Verdana" font-size="11" lengthAdjust="spacing" textLength="84.4067" x="396.457" y="266.3931">PDF escaneado</text><text fill="#000000" font-family="Verdana" font-size="11" lengthAdjust="spacing" textLength="68.2021" x="396.457" y="279.1978">ou Imagem?</text><text fill="#000000" font-family="Verdana" font-size="11" lengthAdjust="spacing" textLength="20.7539" x="363.7031" y="266.3931">Sim</text><text fill="#000000" font-family="Verdana" font-size="11" lengthAdjust="spacing" textLength="21.6992" x="492.8638" y="266.3931">Nao</text><polygon fill="#F5F5F5" points="438.6604,367.1904,450.6604,379.1904,438.6604,391.1904,426.6604,379.1904,438.6604,367.1904" style="stroke:#333333;stroke-width:1;"/><line style="stroke:#000000;stroke-width:1;" x1="358.7031" x2="358.7031" y1="54.3545" y2="851.4404"/><path d="M739.6099,301.792 L739.6099,325.4912 L719.6099,329.4912 L739.6099,333.4912 L739.6099,357.1904 A0,0 0 0 0 739.6099,357.1904 L965.6011,357.1904 A0,0 0 0 0 965.6011,357.1904 L965.6011,311.792 L955.6011,301.792 L739.6099,301.792 A0,0 0 0 0 739.6099,301.792" fill="#FFF4E5" style="stroke:#FF8C00;stroke-width:1;"/><path d="M955.6011,301.792 L955.6011,311.792 L965.6011,311.792 L955.6011,301.792" fill="#FFF4E5" style="stroke:#FF8C00;stroke-width:1;"/><text fill="#000000" font-family="Verdana" font-size="13" font-weight="bold" lengthAdjust="spacing" textLength="46.8774" x="745.6099" y="318.8589">Custo:</text><text fill="#000000" font-family="Verdana" font-size="13" lengthAdjust="spacing" textLength="88.9561" x="796.6196" y="318.8589">~R$ 800/mes</text><text fill="#000000" font-family="Verdana" font-size="13" font-weight="bold" lengthAdjust="spacing" textLength="67.5581" x="745.6099" y="333.9917">Precisao:</text><text fill="#000000" font-family="Verdana" font-size="13" lengthAdjust="spacing" textLength="82.3418" x="817.3003" y="333.9917">&gt;95% PT-BR</text><text fill="#000000" font-family="Verdana" font-size="13" font-weight="bold" lengthAdjust="spacing" textLength="74.623" x="745.6099" y="349.1245">Formatos:</text><text fill="#000000" font-family="Verdana" font-size="13" lengthAdjust="spacing" textLength="126.2358" x="824.3652" y="349.1245">PDF, JPG, PNG, TIFF</text><rect fill="#F5F5F5" height="47.9375" rx="12.5" ry="12.5" style="stroke:#333333;stroke-width:1;" width="194.0469" x="525.563" y="305.5225"/><text fill="#000000" font-family="Verdana" font-size="12" lengthAdjust="spacing" textLength="174.0469" x="535.563" y="326.6611">Azure Document Intelligence</text><text fill="#000000" font-family="Verdana" font-size="12" lengthAdjust="spacing" textLength="159.6563" x="535.563" y="340.6299">OCR + Layout Recognition</text><line style="stroke:#000000;stroke-width:1;" x1="519.563" x2="519.563" y1="54.3545" y2="851.4404"/><rect fill="#F5F5F5" height="47.9375" rx="12.5" ry="12.5" style="stroke:#333333;stroke-width:1;" width="94.9941" x="1094.0464" y="301.792"/><text fill="#000000" font-family="Verdana" font-size="12" lengthAdjust="spacing" textLength="74.9941" x="1104.0464" y="322.9307">Extrair texto</text><text fill="#000000" font-family="Verdana" font-size="12" lengthAdjust="spacing" textLength="74.0918" x="1104.0464" y="336.8994">diretamente</text><rect fill="#F5F5F5" height="33.9688" rx="12.5" ry="12.5" style="stroke:#333333;stroke-width:1;" width="107.4453" x="976.6011" y="411.1904"/><text fill="#000000" font-family="Verdana" font-size="12" lengthAdjust="spacing" textLength="87.4453" x="986.6011" y="432.3291">Texto extraido</text><line style="stroke:#000000;stroke-width:1;" x1="970.6011" x2="970.6011" y1="54.3545" y2="851.4404"/><path d="M1387.1362,455.1592 L1387.1362,486.4248 L1367.1362,490.4248 L1387.1362,494.4248 L1387.1362,525.6904 A0,0 0 0 0 1387.1362,525.6904 L1560.2197,525.6904 A0,0 0 0 0 1560.2197,525.6904 L1560.2197,465.1592 L1550.2197,455.1592 L1387.1362,455.1592 A0,0 0 0 0 1387.1362,455.1592" fill="#FFF4E5" style="stroke:#FF8C00;stroke-width:1;"/><path d="M1550.2197,455.1592 L1550.2197,465.1592 L1560.2197,465.1592 L1550.2197,455.1592" fill="#FFF4E5" style="stroke:#FF8C00;stroke-width:1;"/><text fill="#000000" font-family="Verdana" font-size="13" font-weight="bold" lengthAdjust="spacing" textLength="80.7803" x="1393.1362" y="472.2261">Estrategia:</text><text fill="#000000" font-family="Verdana" font-size="13" lengthAdjust="spacing" textLength="145.4248" x="1393.1362" y="487.3589">- Respeitar paragrafos</text><text fill="#000000" font-family="Verdana" font-size="13" lengthAdjust="spacing" textLength="132.4375" x="1393.1362" y="502.4917">- Preservar contexto</text><text fill="#000000" font-family="Verdana" font-size="13" lengthAdjust="spacing" textLength="152.0835" x="1393.1362" y="517.6245">- Metadados do doc pai</text><rect fill="#F5F5F5" height="47.9375" rx="12.5" ry="12.5" style="stroke:#333333;stroke-width:1;" width="168.0957" x="1199.0405" y="466.4561"/><text fill="#000000" font-family="Verdana" font-size="12" lengthAdjust="spacing" textLength="108.2109" x="1209.0405" y="487.5947">Dividir em chunks</text><text fill="#000000" font-family="Verdana" font-size="12" lengthAdjust="spacing" textLength="148.0957" x="1209.0405" y="501.5635">(512 tokens, 50 overlap)</text><line style="stroke:#000000;stroke-width:1;" x1="1193.0405" x2="1193.0405" y1="54.3545" y2="851.4404"/><rect fill="#F5F5F5" height="61.9063" rx="12.5" ry="12.5" style="stroke:#333333;stroke-width:1;" width="172.3672" x="1571.2197" y="545.6904"/><text fill="#000000" font-family="Verdana" font-size="12" lengthAdjust="spacing" textLength="82.8164" x="1581.2197" y="566.8291">Gerar vetores</text><text fill="#000000" font-family="Verdana" font-size="12" lengthAdjust="spacing" textLength="152.3672" x="1581.2197" y="580.7979">(text-embedding-3-large)</text><text fill="#000000" font-family="Verdana" font-size="12" lengthAdjust="spacing" textLength="99.2109" x="1581.2197" y="594.7666">3072 dimensoes</text><line style="stroke:#000000;stroke-width:1;" x1="1565.2197" x2="1565.2197" y1="54.3545" y2="851.4404"/><path d="M1896.999,630.8506 L1896.999,654.5498 L1876.999,658.5498 L1896.999,662.5498 L1896.999,686.249 A0,0 0 0 0 1896.999,686.249 L2045.3838,686.249 A0,0 0 0 0 2045.3838,686.249 L2045.3838,640.8506 L2035.3838,630.8506 L1896.999,630.8506 A0,0 0 0 0 1896.999,630.8506" fill="#FFF4E5" style="stroke:#FF8C00;stroke-width:1;"/><path d="M2035.3838,630.8506 L2035.3838,640.8506 L2045.3838,640.8506 L2035.3838,630.8506" fill="#FFF4E5" style="stroke:#FF8C00;stroke-width:1;"/><text fill="#000000" font-family="Verdana" font-size="13" font-weight="bold" lengthAdjust="spacing" textLength="58.5762" x="1902.999" y="647.9175">Modelo:</text><text fill="#000000" font-family="Verdana" font-size="13" lengthAdjust="spacing" textLength="54.5771" x="1965.7075" y="647.9175">BERT-PT</text><text fill="#000000" font-family="Verdana" font-size="13" font-weight="bold" lengthAdjust="spacing" textLength="59.998" x="1902.999" y="663.0503">Classes:</text><text fill="#000000" font-family="Verdana" font-size="13" lengthAdjust="spacing" textLength="63.2544" x="1967.1294" y="663.0503">~15 tipos</text><text fill="#000000" font-family="Verdana" font-size="13" font-weight="bold" lengthAdjust="spacing" textLength="76.0386" x="1902.999" y="678.1831">F1 Target:</text><text fill="#000000" font-family="Verdana" font-size="13" lengthAdjust="spacing" textLength="39.7871" x="1983.1699" y="678.1831">&gt;85%</text><rect fill="#F5F5F5" height="61.9063" rx="12.5" ry="12.5" style="stroke:#333333;stroke-width:1;" width="123.4121" x="1753.5869" y="627.5967"/><text fill="#000000" font-family="Verdana" font-size="12" lengthAdjust="spacing" textLength="88.1602" x="1763.5869" y="648.7354">Classificar tipo</text><text fill="#000000" font-family="Verdana" font-size="12" lengthAdjust="spacing" textLength="86.7012" x="1763.5869" y="662.7041">de documento</text><text fill="#000000" font-family="Verdana" font-size="12" lengthAdjust="spacing" textLength="103.4121" x="1763.5869" y="676.6729">(ASO, PPRA, etc.)</text><line style="stroke:#000000;stroke-width:1;" x1="1747.5869" x2="1747.5869" y1="54.3545" y2="851.4404"/><rect fill="#000000" height="6" rx="2.5" ry="2.5" style="stroke:#000000;stroke-width:1;" width="315.4941" x="2056.3838" y="709.5029"/><rect fill="#F5F5F5" height="47.9375" rx="12.5" ry="12.5" style="stroke:#333333;stroke-width:1;" width="134.6738" x="2068.3838" y="735.5029"/><text fill="#000000" font-family="Verdana" font-size="12" lengthAdjust="spacing" textLength="114.6738" x="2078.3838" y="756.6416">Armazenar vetores</text><text fill="#000000" font-family="Verdana" font-size="12" lengthAdjust="spacing" textLength="19.0723" x="2078.3838" y="770.6104">em</text><text fill="#000000" font-family="Verdana" font-size="12" font-weight="bold" lengthAdjust="spacing" textLength="47.0859" x="2101.2705" y="770.6104">Qdrant</text><rect fill="#F5F5F5" height="47.9375" rx="12.5" ry="12.5" style="stroke:#333333;stroke-width:1;" width="128.8203" x="2231.0576" y="735.5029"/><text fill="#000000" font-family="Verdana" font-size="12" lengthAdjust="spacing" textLength="108.8203" x="2241.0576" y="756.6416">Salvar metadados</text><text fill="#000000" font-family="Verdana" font-size="12" lengthAdjust="spacing" textLength="19.0723" x="2241.0576" y="770.6104">em</text><text fill="#000000" font-family="Verdana" font-size="12" font-weight="bold" lengthAdjust="spacing" textLength="79.0547" x="2263.9443" y="770.6104">PostgreSQL</text><rect fill="#000000" height="6" rx="2.5" ry="2.5" style="stroke:#000000;stroke-width:1;" width="315.4941" x="2056.3838" y="803.4404"/><ellipse cx="2214.1309" cy="840.4404" fill="none" rx="11" ry="11" style="stroke:#000000;stroke-width:1;"/><ellipse cx="2214.1309" cy="840.4404" fill="#FFFFFF" rx="6" ry="6" style="stroke:#000000;stroke-width:1;"/><line style="stroke:#000000;stroke-width:1;" x1="2050.3838" x2="2050.3838" y1="54.3545" y2="851.4404"/><line style="stroke:#000000;stroke-width:1;" x1="2375.8779" x2="2375.8779" y1="54.3545" y2="851.4404"/><line style="stroke:#000000;stroke-width:1;" x1="94.3145" x2="94.3145" y1="100.3076" y2="120.3076"/><polygon fill="#000000" points="90.3145,110.3076,94.3145,120.3076,98.3145,110.3076,94.3145,114.3076" style="stroke:#000000;stroke-width:1;"/><line style="stroke:#000000;stroke-width:1;" x1="2135.7207" x2="2135.7207" y1="715.5029" y2="735.5029"/><polygon fill="#000000" points="2131.7207,725.5029,2135.7207,735.5029,2139.7207,725.5029,2135.7207,729.5029" style="stroke:#000000;stroke-width:1;"/><line style="stroke:#000000;stroke-width:1;" x1="2295.4678" x2="2295.4678" y1="715.5029" y2="735.5029"/><polygon fill="#000000" points="2291.4678,725.5029,2295.4678,735.5029,2299.4678,725.5029,2295.4678,729.5029" style="stroke:#000000;stroke-width:1;"/><line style="stroke:#000000;stroke-width:1;" x1="2135.7207" x2="2135.7207" y1="783.4404" y2="803.4404"/><polygon fill="#000000" points="2131.7207,793.4404,2135.7207,803.4404,2139.7207,793.4404,2135.7207,797.4404" style="stroke:#000000;stroke-width:1;"/><line style="stroke:#000000;stroke-width:1;" x1="2295.4678" x2="2295.4678" y1="783.4404" y2="803.4404"/><polygon fill="#000000" points="2291.4678,793.4404,2295.4678,803.4404,2299.4678,793.4404,2295.4678,797.4404" style="stroke:#000000;stroke-width:1;"/><line style="stroke:#000000;stroke-width:1;" x1="2214.1309" x2="2214.1309" y1="809.4404" y2="829.4404"/><polygon fill="#000000" points="2210.1309,819.4404,2214.1309,829.4404,2218.1309,819.4404,2214.1309,823.4404" style="stroke:#000000;stroke-width:1;"/><line style="stroke:#000000;stroke-width:1;" x1="94.3145" x2="94.3145" y1="168.2451" y2="173.2451"/><line style="stroke:#000000;stroke-width:1;" x1="94.3145" x2="268.666" y1="173.2451" y2="173.2451"/><line style="stroke:#000000;stroke-width:1;" x1="268.666" x2="268.666" y1="173.2451" y2="188.2451"/><polygon fill="#000000" points="264.666,178.2451,268.666,188.2451,272.666,178.2451,268.666,182.2451" style="stroke:#000000;stroke-width:1;"/><line style="stroke:#000000;stroke-width:1;" x1="384.457" x2="372.457" y1="268.9873" y2="268.9873"/><line style="stroke:#000000;stroke-width:1;" x1="372.457" x2="372.457" y1="268.9873" y2="288.1943"/><line style="stroke:#000000;stroke-width:1;" x1="372.457" x2="622.5864" y1="288.1943" y2="288.1943"/><line style="stroke:#000000;stroke-width:1;" x1="622.5864" x2="622.5864" y1="288.1943" y2="305.5225"/><polygon fill="#000000" points="618.5864,295.5225,622.5864,305.5225,626.5864,295.5225,622.5864,299.5225" style="stroke:#000000;stroke-width:1;"/><line style="stroke:#000000;stroke-width:1;" x1="492.8638" x2="1141.5435" y1="268.9873" y2="268.9873"/><line style="stroke:#000000;stroke-width:1;" x1="1141.5435" x2="1141.5435" y1="268.9873" y2="301.792"/><polygon fill="#000000" points="1137.5435,291.792,1141.5435,301.792,1145.5435,291.792,1141.5435,295.792" style="stroke:#000000;stroke-width:1;"/><line style="stroke:#000000;stroke-width:1;" x1="622.5864" x2="622.5864" y1="353.46" y2="361.1904"/><line style="stroke:#000000;stroke-width:1;" x1="622.5864" x2="408.6604" y1="361.1904" y2="361.1904"/><line style="stroke:#000000;stroke-width:1;" x1="408.6604" x2="408.6604" y1="361.1904" y2="379.1904"/><line style="stroke:#000000;stroke-width:1;" x1="408.6604" x2="426.6604" y1="379.1904" y2="379.1904"/><polygon fill="#000000" points="416.6604,375.1904,426.6604,379.1904,416.6604,383.1904,420.6604,379.1904" style="stroke:#000000;stroke-width:1;"/><line style="stroke:#000000;stroke-width:1;" x1="1141.5435" x2="1141.5435" y1="349.7295" y2="379.1904"/><line style="stroke:#000000;stroke-width:1;" x1="1141.5435" x2="450.6604" y1="379.1904" y2="379.1904"/><polygon fill="#000000" points="460.6604,375.1904,450.6604,379.1904,460.6604,383.1904,456.6604,379.1904" style="stroke:#000000;stroke-width:1;"/><line style="stroke:#000000;stroke-width:1;" x1="268.666" x2="268.666" y1="236.1826" y2="241.1826"/><line style="stroke:#000000;stroke-width:1;" x1="268.666" x2="438.6604" y1="241.1826" y2="241.1826"/><line style="stroke:#000000;stroke-width:1;" x1="438.6604" x2="438.6604" y1="241.1826" y2="256.1826"/><polygon fill="#000000" points="434.6604,246.1826,438.6604,256.1826,442.6604,246.1826,438.6604,250.1826" style="stroke:#000000;stroke-width:1;"/><line style="stroke:#000000;stroke-width:1;" x1="438.6604" x2="438.6604" y1="391.1904" y2="396.1904"/><line style="stroke:#000000;stroke-width:1;" x1="438.6604" x2="1030.3237" y1="396.1904" y2="396.1904"/><line style="stroke:#000000;stroke-width:1;" x1="1030.3237" x2="1030.3237" y1="396.1904" y2="411.1904"/><polygon fill="#000000" points="1026.3237,401.1904,1030.3237,411.1904,1034.3237,401.1904,1030.3237,405.1904" style="stroke:#000000;stroke-width:1;"/><line style="stroke:#000000;stroke-width:1;" x1="1030.3237" x2="1030.3237" y1="445.1592" y2="450.1592"/><line style="stroke:#000000;stroke-width:1;" x1="1030.3237" x2="1283.0884" y1="450.1592" y2="450.1592"/><line style="stroke:#000000;stroke-width:1;" x1="1283.0884" x2="1283.0884" y1="450.1592" y2="466.4561"/><polygon fill="#000000" points="1279.0884,456.4561,1283.0884,466.4561,1287.0884,456.4561,1283.0884,460.4561" style="stroke:#000000;stroke-width:1;"/><line style="stroke:#000000;stroke-width:1;" x1="1283.0884" x2="1283.0884" y1="514.3936" y2="530.6904"/><line style="stroke:#000000;stroke-width:1;" x1="1283.0884" x2="1657.4033" y1="530.6904" y2="530.6904"/><line style="stroke:#000000;stroke-width:1;" x1="1657.4033" x2="1657.4033" y1="530.6904" y2="545.6904"/><polygon fill="#000000" points="1653.4033,535.6904,1657.4033,545.6904,1661.4033,535.6904,1657.4033,539.6904" style="stroke:#000000;stroke-width:1;"/><line style="stroke:#000000;stroke-width:1;" x1="1657.4033" x2="1657.4033" y1="607.5967" y2="612.5967"/><line style="stroke:#000000;stroke-width:1;" x1="1657.4033" x2="1815.293" y1="612.5967" y2="612.5967"/><line style="stroke:#000000;stroke-width:1;" x1="1815.293" x2="1815.293" y1="612.5967" y2="627.5967"/><polygon fill="#000000" points="1811.293,617.5967,1815.293,627.5967,1819.293,617.5967,1815.293,621.5967" style="stroke:#000000;stroke-width:1;"/><line style="stroke:#000000;stroke-width:1;" x1="1815.293" x2="1815.293" y1="689.5029" y2="694.5029"/><line style="stroke:#000000;stroke-width:1;" x1="1815.293" x2="2214.1309" y1="694.5029" y2="694.5029"/><line style="stroke:#000000;stroke-width:1;" x1="2214.1309" x2="2214.1309" y1="694.5029" y2="709.5029"/><polygon fill="#000000" points="2210.1309,699.5029,2214.1309,709.5029,2218.1309,699.5029,2214.1309,703.5029" style="stroke:#000000;stroke-width:1;"/><text fill="#000000" font-family="Verdana" font-size="18" lengthAdjust="spacing" textLength="141.5566" x="22.5361" y="71.0625">Fonte de Dados</text><text fill="#000000" font-family="Verdana" font-size="18" lengthAdjust="spacing" textLength="69.1963" x="233.0679" y="71.0625">Crawler</text><text fill="#000000" font-family="Verdana" font-size="18" lengthAdjust="spacing" textLength="121.5967" x="378.3347" y="71.0625">OCR Decision</text><text fill="#000000" font-family="Verdana" font-size="18" lengthAdjust="spacing" textLength="96.6094" x="696.7773" y="71.0625">Azure OCR</text><text fill="#000000" font-family="Verdana" font-size="18" lengthAdjust="spacing" textLength="57.1377" x="1053.252" y="71.0625">Parser</text><text fill="#000000" font-family="Verdana" font-size="18" lengthAdjust="spacing" textLength="85.0518" x="1336.6042" y="71.0625">Chunking</text><text fill="#000000" font-family="Verdana" font-size="18" lengthAdjust="spacing" textLength="102.0938" x="1605.3564" y="71.0625">Embedding</text><text fill="#000000" font-family="Verdana" font-size="18" lengthAdjust="spacing" textLength="150.3809" x="1823.7949" y="71.0625">ML Classification</text><text fill="#000000" font-family="Verdana" font-size="18" lengthAdjust="spacing" textLength="70.4268" x="2177.9175" y="71.0625">Storage</text><g class="footer" data-source-line="73"><text fill="#000000" font-family="Verdana" font-size="10" lengthAdjust="spacing" textLength="274.9414" x="1056.3987" y="865.7227">JurisFinder LEAN - Pipeline de Indexacao | Janeiro 2026</text></g><?plantuml-src TLHHRzem47xFhxXfgmGPh2ajAmDf4mM2gA1DWOS-yE8vHsgHsCWshEso_lQTNQ2jjWOKoJv_tzrztyKVx1qM2EkS2Ha4LjWS8H5hp8L4c7Q7K8UHJF6USQQWmbK1rxrfDGZCIiWrqwm0ZTmocH7kTm3qN32-ohJQoBIdSgNXuw0LdyNzvvZIAUhTVXITj_fdmP_NP8nRiHNsuJskkEb-_tAT-kSjbrJstPhYE3uR_8SdZbkzA78yPQmauLE4FakLAGDZcRP1kw_ufa1frK9MadvSW_vrxxO6j-DP3KQJORL3q9vcltBK9Pr6w-JHLCnMcMEMMzIEZi12SesEYULW7YJtI18N-iY54KgMWLY2om5eE9D8k8LK6nWLBCFYHnN8EWcLcIYglf6o-xZHwFmf_RhzlDuNJ3vQp7EHeUIua2xJPnYp1xMnC4MkCYaiPUruhDTEY-pE-YL06FOsngfs6CBJz1EqekYuG7C89jeLpNpy-xVc4IJp-iNq48wLBfXLneMzQ9V9i0R95RtcepZsvr2cFcs0kK6eN36rQojXsZWnVK-3UwkPq63ntbcG2esMkVQm4n23M9A8Uq1xxWu1UaYgl3Dt6qa3aZbhQD083bW0TxlEa-P90wnQeJGrQ4QWjgXpjYPdtkWHXWD3b1OpmQWZsgcJWcQDmZdjXY_JRAcC3v0oLCoM0jmD51NajoTKTkec0L95Vqum4Hma2Cf1yHFJzBdI8SsCXYrQHLnKfMEfu_v0_RIUCvrXTI5Fe_C6f8BaC0gDwtSoXbxEZ15BmPdrGzL-sI0PnTgfYAw4mrXtPzTaJZBjrW0j__9l-nELOkwzlXXCv_LaxdSzBtgFdqwQdjhuG7m2SrUXzTFHQXwzRdH6NT4yby5IwTLkRcbO7b6-xfbC2iERL3Dfmx3ZpmBBt9tb4JEMEuMBlQWxGAACpJJERiOEv9Bw9FGfgtL095I1XikD5YOM98A6yQ1xvJpRNu0apCljLy8bVOL2AsX4ZQz_0G00?></g></svg>